<mxfile host="65bd71144e">
    <diagram id="NWS4bOIGYFbxH2jeF8Xs" name="Page-1">
        <mxGraphModel dx="2554" dy="1147" grid="1" gridSize="10" guides="1" tooltips="1" connect="1" arrows="1" fold="1" page="1" pageScale="1" pageWidth="850" pageHeight="1100" math="0" shadow="0">
            <root>
                <mxCell id="0"/>
                <mxCell id="1" parent="0"/>
                <mxCell id="27" value="" style="shape=stencil(lVfbcloxDPya86qRLV+f0/Q/MhNSmFLIEHr7+8plDMjgZfJ2OGiPJXl3LS/y9LF+eV8tnj+Oh/331e/N63G9yJfF+81uvTpsjvq0yPMiT2/7w+rbYf9z93r6/f7SItvTj/2v9oU/JxxTdQ3k+e/pRYpUyv83X0/x283uKt5TriY+FnJxHh+pJhsfKIV5vGPKYgHS39wHZHJDRo4iAGhKzq4QCqU0B0ggb2sIkYKfA0IgLhbgKDjQJKFqU5JMDGpIQj5bgBCDlLKjEgzAV8oMAIVKtIBMOc8B5aZLPlEFTCqFvBsBCaxQuTPzDAi9DfcBQsnWoGSJFQDKWAN3cs3icxziBTS1VvLeVkAZME/jE5v4TAJ4pPFDh5xQAB1yzMR2BS0BtqhStczTnCqgqgKyzUn1hAStgGCbGhhvc+3UPwOku85s26IVQxM0SqkQDykFikBuNVOy3FYHELRCJm9XkEQOqKeeDeJK0AmtkEYnVvIJcOK2gu2SU+dE7NYa7E6Xrr9pk4aasf5LX/6itoRaVDqTL/GM1cmW2g5aZCPqcPI8kk6x+TvXOzbV2iBnbQH2i2ozaik9MAxLCvEUcUpxOHhK96gZwFlA8N1Bpp5qu6Ti9KiGTwNk7FJM2LZvhqSYIZPa0ebHFdDx3A7PMgICEGc7nuuYkoCNawPAANCtBDXoiCHWYPQNkn+8aWvKcAX1UGcNJns4V+nBIbatOXd2zUY9b6lRHDR6nQ+GuapEyoBLOq4WS41S++B0v63kbLyyUYBpyFhyjX24vJ8QBVtxmyFATx05+/2rkeAugMdBUhdAxOPuJ+f43K8Qk3hJY8Ho5OR+TJ7jfZ/vJ/Fsv69iRRtwMyCpVnE+PBCCIUd5vCvkBD2eR2tR0aDrDvebx1mVWPfcr2dXKvbAiT57gXwcrw+X2+rbZrs9XXav/x9vt/rqdDOW538=);lineShape=1;" vertex="1" parent="1">
                    <mxGeometry x="129.52203147779483" y="344.8844941166444" width="128.28062425356575" height="8.59911617040234" as="geometry"/>
                </mxCell>
                <mxCell id="28" value="" style="shape=stencil(lVvLchw3DPwaXVkE3zg7zn+4ynKsimO5bOf19wGj4mrZmOmxb9IuMEMSQANocB/ym28f3315fEjx2/evz78//v30/vvHh/zLQ0pPnz8+fn36bn895LcP+c2H56+Pv319/vPz+5f/v7ybkvOvP57/mk/450UvhaxTKcV/Xz6Q0OP/H/z6Iv7p6fMmXssmnkOrTLzvT68hE/Ec4tjEe5DExHPfxDVIZ+JtX7tIKFR+7I+XEqKcy9u3cJQtdLL8EnLc5TU0sp6yVrvk7Xi5fG27fA0t/4z8CFWpvOy+YOdJ91t26+ZC7WXy+3nmttzpx9afNSS637bLFwmV+H4JY7dXydS+NcTd30oNSvZbQ027/AipnMu3kPb11BjqOJfvIeZdPgUl0TiWt9/kLXqJ/2uI+/prD43YS2KIuwGqBiUbtngFfGhpfXKskHBJjYewKfS6K9QwiI0lh7Q7aevLjGcKbbdCM9QiXmoKYzdDj2uRZwq6+0U3kG/8DQC7ZZ3bjy7JkIXZIS9HuCn0BX5nCoAtfYTBN513hRGps5oCON8QGs3mGnkP52EAxfYgKxpvCi0os4MEAYXBTyli8tYYlNhBQ98PSTPNx4qHqnWd2qkV9kPVxuPNgqWjgpA3zIqioEJiBctAK0wFAjKWlHpyCiyNxDDcphPLgw2LqKlANl1veelOIZM91Fs43ilUYoc6Qs+owLC7CSYfU1DyhmauAcdqxR0xnAFvzqiQiHMb8KK39lCI4Qx40VvNHUk4dFn11p0Cw71+K3DuFFgJ01sYigoM97o6X+IKhnI63JLIHgzlvOGYaxjK1eqOlbi3oVxzbyis0BAXolbbEF8ymMM3NFoqqavFJpCRiJtfg6UzrWUmzoEdhNYBXmHoqj1OFSDDWcSxYzUFl+GY4eamYUmycOTsWHWPaUvrLOmaQtt9ySoN1rOZQoJaJlGY0YLo3QYtr0yhuJpyMEubI0CJaFmabTojzNS2WpUzhbIbzip7Vpqoq5YKrzTUoXcxWGAB5Ao4S5Os+TSFvm/auj1lCq7dzpli6zQccBeWufkbwA5WTFDnK6tXuCm0VaGdKsAbCm1B9eZqdxwA609MARqaJDSLzk0DS6IrJ50eK9AYfT3iTAGSolTah84A2o9V7BFsSQ7urXgX7q1pP6XX3vRYIa0ke0M+2jGp4814xWfygN2Fx6dg9FipwjMo+JFQpm2uZw/nSKmnud8G8plDHqSeSBt7zUgsRl4AuNi/eH5FroR3kyYP3FbkiF1Db3j+/PnOXo3tty4W9xb2V/uFUjhd4hDKX8AQBFi+KtiqojyD6rQ669f1KHt+WgXmqzzNTgm5sESbyBmPjlZn8XIgT1E6reN79Td6/o7mj5SqneeJ8SK8xoE+PtK+f/oDxhe1b0G8jSHxeMkoX3lh2vB8aEo6iEfWav60fFsJ7hX/K+8mMjCjPL4a4vNFzm5IEeriYY7lu8vxQrkvU4BuX25l86kCRExdrOSZgq9TWLc/37DveVZCFwq+1mJR37FZmTDKTwnS5PQL3gNCw2WOwejpSftACTt4pmm4h3wZOrCknDlWV1xSvuj2K84FZ+/Bsx9GW+F1u1cYvJ6rSB7XRBm8uWkY7rQFsafHCpOLyNuhdtDHstGv96XG54Mz4qB5F+4aHffQbyTgscLAmO4XSxqYZ8dFoayOdSkcuRXZr8n6syUpjhUnr8OXBKd0wRxJjFgtzP6FeZ9ix6UX/Yc6srZx6qjjkMpMQ3ma6mjIwfmB7EhzpbS8RqyZpy05b4nEv14xo9CMmwKL0eHaFuXN+EiOhlQact2561S4YKh3O9y517GG47/mK8i5dkFkmrtmg3DFWZ7ymxStYXlrCoUsyaBRBRXY2Km5Anq6K1OIWOEqh7I6HEU9VpN1rFDdJKxTU1fBCycXs4WDwVanDNscnflxB7HDHM65kQ2beCY/WxgULGcFJu5Y2S2Gjpl6Go4P9LNToAP9uHrNOwVW6vYD32sE+VzzP1M9OdSKeX3WQ2TH1TUPmXYPbZ3fXYJj63d1t2XQyDAMnWj0NRg/RlX0oVEXzB5nEowbg2VWQ5uBxV1eYO3wHPxD+8YtbArAp/ROG3qJmKp6pRMzUwAqe+I+OSSJrthLdOp3oBApWEyFPdDmxJdfSIL7Ea3Tofa0A9C6jfOc6HmN92/DldyJ9umugLa0UtjMHOs8yyqMWa+I15ZUBr8yBze8Mh0bZRxO10inqHn113d9GOMt3X1US1kMKRJie8mUx0tYTc0rhSzboPy8skj262j1eSWSpT9M+RdXLhPSePNKJwkA9/wLtsCNQRK/OJawk0+JpsrbrPeOsmHnI46GbwvGTuRhPcLPU5A2FqFzgeju7dBwia79pe1yRNai0ktB7nomv+7qmkyhRx/xaqbQZsulSKF3GiMCg9ABYMTxjdD8G/G2FB/oywFZz/IWXimN/Oqjp95ZiyirIr9bO0XA6AZVZKsJeX2hxbO7UynrzveZ+M/9WOFC3P54/V3Eh6dPn15+VnH/Pf6Owj56+Q1Gfvsf);lineShape=1;" vertex="1" parent="1">
                    <mxGeometry x="130.70749959040404" y="350.16099988388123" width="136.09503020955344" height="182.31476756535767" as="geometry"/>
                </mxCell>
                <mxCell id="29" value="" style="shape=stencil(lVjZUhtBDPwav6rmPp4J+Q+qMMEVgikg19+nJ844K623XbyZRb0zOrol7S7evD3evex3wb29vx6/7n8e7t8fd/HTLoTD8+P+9fCOX7t4u4s3D8fX/ZfX4/fn+9PfL3fDcvz6dvwx3vDrhPPiywAF9/vfAyfO/33y+WT/dHhe2EdJXtlHiX3bvEptyhxvd9vmOLx0fR3Jidgnifo6WQp7f5Ni3PXzDRcBcK9GDSjzFZcBXVJSgBHiQAKaZwDPgCyubQMSbpw1oInPBFDnBc45c1JJ0nKQon2IeEKilJFmpwFJHLlSCRKrBmRp5EqlSNZOxzbDcLnwnAR9pYQnpJQqCllnGoEO7IQy07QAdJK4iuLTTqcgtW4DmhdnAJHmoUUJBoBaImFtZdLlDChS2Qko7xWgkPLuYRJ46UMkgBUfkOnEACgEnQec2UgeepViAGA54TQATjvdvSTmdLEqiUCzPMDprhNXeXkDUDWnS6fKOgDahwwA8wFXMplG7lmUitXixLUVgLYSAZrpamsJunSlNMJayDjAOB0LjxJionUJnA4c0LTMZMdblnO2+oqbNN86ous7DTFkXndLiNp5XLuEVX13lupmdQYMusLRrusbHG28NoIBhNkytqova51paKMsrEW89gH6zPruoJwJa+B5yDYPo0/yE5oZf+A0O6HMGy/UuDHZKLZnxcqVrFoViJGOMx8HIE2a1Mh0YMKUZ6mdAYVHCW1ZR2kwhDXqLlGXxoK1W43XDHGjZzBAXPUgRzna3ByoFhytRJnQcbIhNYZ9NtujQ2gpw5mej1hmJqtnEm4NcW7FoE6cxpiYdLmiLQZSTINgpo+iKxHKYdQ1G0TBwEKcHsO0ke80J82tcd2ZEyLdIMacamTDT682V47VLMC2OCw1UVMOYWBtEWuTEdecpLJFrs1SWyhZIh0Fm59ZatBHWUfBamkH0Ualr86ZcDkaExei5duYvYks+TnKL+YruhuvZvs+6XTR3tkpAP6yfcbZpQ/+BpIBZ+f0FK/cx+sqjZ0qnpsb5GI6ZDW3GpOw5TIWwF6rF/buTEQe9zf2nu64zvY1X+eJG/Zmw/WR6jXKXedrfMpgFPvgl57r9vjx/7PSw+Hp6fRVavl/+xkKj06fsOLtHw==);lineShape=1;" vertex="1" parent="1">
                    <mxGeometry x="138.69577502030506" y="377.55169323786254" width="118.39090414922202" height="8.29740128022604" as="geometry"/>
                </mxCell>
                <mxCell id="30" value="" style="shape=stencil(rVjLbhsxDPwaXwlJ1IM6p+l/BIhTG3XjwEn6+PtSNbQ16e4kAXpbr8kVRQ6HI2345nl397TdpPD8cjp+3f7Y37/sNvxpk9L+cbc97V/0acO3G755OJ62X07H18f78++nu2E5nr4dv48v/Dz7BSoynFL4dX7BTJz/vPl8tj/sHy/sI5Vg7GOnIOv2TK0a+0rS1s0rlWg/Tz2tm3fq9uuBQgDBZ4rR2cPNCrXiwgkget1t9+EnZN+J0we+z9nHo+Wr6/ZZ0+HjYfD9nGe2p32iCoqbO2UbT4blKkyVjX2jAOIvzdsr2BigR7fn0IkTVDWhrgCJWgQOjcRGFAsJcGjhCkKaNIC5xlS6rQFTBptu1bekdhFCXetUsnUQEhCSJMo2S6w4BXWWQtE5JOoFODQfktKQdND4kZqtAwcI7V5mxMumM2VQuK6VdtBoMEtdKDfroGkF4Ot9NvtFpVG7qUOpvg4C+E4dxLJ7TsRghRgWAp0eJROjNHVPebUSA7iqQ7V5bY0S3kS0HaTwaiivQsXmVdESUUjN015XFkClbrPBFocwW+TfDpWaTavktxzcCq1gfFdP9cptCRWu+NlZ0pyOayu4ptbxAitdfUNoj0a86W7hqvOn4DpUx/cC8a3QSMU7IPmiDq6DdIRWVIc+WeWCXBtu6mb5noUqpg2XpRIg3/crlVSV0HHHNcvGOpTe2IPTMcKUEDQ0JxYa0nHHCUUbkrZo/a8O7EMaYAF1GBE7cRWw/NQpx90vISCvShLd6Z8y6XZtUqerXSewgmoBttgQgTNI1Uay6BtBgtGu0PEOAWJDFVO2DgN9oHKqyaqjPuVnIB6UGd2AUOGISj3+dlNRRRcSuqpnLM8ouaIOUmXsRrtqawTXIb1tSFm1NKjD0PbOoUx+fufhQR2QWh+nk/6RFcbxp/g9IPCN85VLK8bSUGCucAwrPU6Ijlx1KAEs6QEjWIe6KP6VE67j1qoRASix5zFFr4Atp5mQdwqH6CmmCdTF0TebtjNCRfRCZrQ/2G+gnn086MYgXB0pVacAEg5TICz2CcYfPCAqBkSYXXjBLRHbO4QWOETCPAEvPSNQDQePHz0CCMDnoukWObLQ64r9xy6Q3rbXh7+3VQ/7w+F82XX5v7/d0lfnmzG+/Q0=);lineShape=1;" vertex="1" parent="1">
                    <mxGeometry x="138.727306236166" y="402.63896046481705" width="114.56804605245088" height="6.183475664757452" as="geometry"/>
                </mxCell>
                <mxCell id="31" value="" style="shape=stencil(rVjbUhsxDP2avGpkyddnSv+DGULJlBImQC9/X7lhFyyHA5np22bjs7KkoyPZG714vL162G6EH58O++/bX7vrp9uNftmI7O5vt4fdkz1t9HKjFzf7w/bbYf98f338/XDVV/anH/uf/Qu/j7hAwh0k/OflRaRU/735elx/t7t/sz6RhnF9ohTeXx+YQh0BSlUAwP5OI4ApMwBUCs0DkAURanEECEXggxRqOgUJANQsuC1lKgkAZh8aMXA6KkkeAOZVBE7HSjw6LZkUWEhCSQaAMmkGgLxEfQXYJtv7gByIR6fVwgosZCNf8hZeMnMa0Ja8rgCBYS3q6S2NJAJA8T5YWAVYqEzFWRCqgEs1UnDkaxQAl2ohcRWXlk2eBDQmnisO5KEJ6WihUAAutLSQfzUANabVhZnLeoZZs/XVcZsy2k8jVe9wQBtqU9ICNVBtBnASoxmLGK8uLggrwIz3VMck5EoRA/JoocpST+8BnHRb4isoN8tDLiOgfgQIo2S8Rvo0oFAay824pYjbxVdPNdlDmTMVG6NkmhCBAhggjz6kiqthAsQAVWzekmAyzU5bUy3I6SmskfJZeWPYS2ZiBApIYCbmFSh5M7VDWYL8yeLRAIvnRH1G09lyjgRkhf1zFpmy9uxPyli1T6BimHTSEq9nCfGbOPwvhDWHcZLpbEHkWwedFWAtEmWCJ5XBwmcd1AXWAAzo1Hv0pJQMct2ngOQBEfhQppJuSuGDSSZ6QANO91kp+rAiNvVpzCUuYYDNe649ZEpoBLWhuXoLCirCWmacwoomSqvhNlqolQogX5+7Ry7VBMnXJ/sxStZ1A4hSPzs4AFMCW+qnE6cbDVKjn39GLpnQBBBWO2HJrEzAh36Ga94HJAI2f4l6QEGHDT+nWwlC/fbHXEsbOvKxj6l9HymlDcxj8dQAJYYpuikDlwL7/ReGQwb7UstWCHA/fvqMywHzc+tjghPGtB8tFAGpJ3/tHFZBmU3xFIV8mPIVcNOZ+GBnKjjPn3mt8vF6e3i9w7nZ3d0dr4De/u/vfOzV8b5IL/8C);lineShape=1;" vertex="1" parent="1">
                    <mxGeometry x="138.2405908526689" y="423.9723311065943" width="119.20580756260915" height="4.0561848175325395" as="geometry"/>
                </mxCell>
                <mxCell id="32" value="" style="shape=stencil(7VjZTltBDP2avFozntXPtP0PJEKJSgkKdPv7eppOiH1vDkKqVFXq2yUcz+Ll+Hg26erp7vpxu+Hw9HzYf9p+2908323Suw3z7uFue9g969cmvd+kq9v9YfvxsP/ycHP8+/F6IMfX5/3XscL3o12ixsOIw4/jD9Kpx1+/fDji73cPZ/hIUiw+UA8Iz2LwvcwVVvGBJFg8UxGEL/Y8rVGqCM/d4nWFjvDBnr8y1QTx9vwlkeD1o8HnQhGuH228Un3FPykZPGt8oX+qXZ+ZElxfrD9jowLWj5QcPlPNCN+tP2OC+cnE9vxR/QnwmcT6J80EXIV3it3BE4hWVOc1mw7UQTao87K9rlAAeN3epWeMlEF56XqcrQHPilg1SIVaXBiAAGf2FaZHasBHuS92CNBJJVMr3uA3i60a1OCjNgxAUlfNiuoNBNyhCsWFQQQ7NJ4HeAk0N4DXvLF37pRAnrZO7HiREiiDrnXmE5WBS5XFq72wZjrCy6zaiT8R5SpesueJMBN3Hd8pLM6D1u++7+mFgP9FfB9THkJloAZuA6UaVGhq4HIuNdiZhoF1UdFCw3dwOVcLJUAWapCsQaskIIuGdrDsonnCoG7UIDp5IJC/RH0SvQHql1JnuzsZ5BnKSwauY2rtwSMVH7iaqIBaUAPX07LgwC2KX1m5oh3q7HlnXRx1ZTUotvyVtAUZNE94GRKk4rvTIcS4PovzEQWcqk4XKQEjwlODajcYUgmdSGbqn4LAJCCRYlhowdwoIBITT8LaudAWalBsvbU0Bcclg+AKlGGv1ThkV2997nkp0M0GWgu04Yp+o0GeneaMZCrI1WXv0UtX4Naxnmu2AdLY6J52ByXKAu6g7dmVj44hEbhVOchzd50d/qLAcKzEWCQtJIwmH8rWIZKcZJCpXi/KMPEGiPeG0FscCe0wpKRN7xqpIO15Ugln3I28NORw8nGI4EhD17k7dKpY0kd7pBZhTS9nBiUBNOKNocTNwHhm7n6m0nJAM2fxQ4nWRwW5+lfeCIBH/8gbAaic/28E/9YbAXsJOe4L3xScmEqZIsi35RtEg8NO8TO80hgaplS/2vzMHQ6ni9muYAVc/DyuJJrg+R1LK8NlQLplvrid8EqqwP96WidyKpzVin8eEH4lXk6OD/kM6jd7/4vA+GbfAc6k5HpXeuMj7ut4/Xh5Mb7d3d8fH5zP/+9fmPWn4+t0ev8T);lineShape=1;" vertex="1" parent="1">
                    <mxGeometry x="143.75745673688516" y="444.4721128115559" width="110.45742375908958" height="5.305882234470573" as="geometry"/>
                </mxCell>
                <mxCell id="33" value="" style="shape=stencil(fZbdcgIhDIWfZm8zQAg/17Z9j85U606tdqz9e/tmZ0c0uJ47xP0I5JwEBl59bp8/1kNwn6fj4W39M76ctgM/DCGM++36OJ50NPDjwKvN4bh+PR6+9i/z74/n6ctp9H74nlb4nbmSKZeJCu5vngmZ6jzzNAO7cX8FVKEsBuBKrgKg9oAE8gkCbLeUhEoEQKSUDZDLeWYRKIl8MEDRmHwfyBrBG6Amyu4+kDxxMoB3jhwgYu7TVAsVkFcWCs4CTBEoF4RctKeOxHIf8IXYpikHikAIf+MNUW94AGSSaoAoFIE3AlOyeWU+p2E5S9yfQZcQILVuQOwZdJNoS9Ls3wA5u2XZTIHECqeJ9kDpSaauRiNVcAY1QhdBzeLBli5WazpkSsBLV25uRaqWRyFawTQzRRIQYirJzq5atkBqLfouwqUxLBepthWb10vrWZY6UOAeyKCCtDV625mm9gmUC4Wc3VLJMMIE1BsA2FW9JraVlQB7n3c9oMKhCLEvIM1zBPZ25/umNQ1tVEC2G+fFCC8g398O2hNQuQlVu752DBfA+q0ptnqO5JFmeuIuo9DY7KjY71UxdJV4EntifPWorW++R/dC4t7V3DlIB5cHx2bc7eb3yvX//QNFp+bHDT/+Aw==);lineShape=1;" vertex="1" parent="1">
                    <mxGeometry x="150.8679608424759" y="466.5419994702379" width="4.672539772115215" height="4.665236216357698" as="geometry"/>
                </mxCell>
                <mxCell id="34" value="" style="shape=stencil(7VjLbhsxDPwaXwlJ1POcpv8RIE5jNI0Dx+nj70vV2c2SWo8boD0U6G3jkHqQw+FQG756vr952m6Cez4e9p+333a3x/sNf9iEsHu83x52R/na8PWGr+72h+2nw/7l8fb099NNt+xfX/Zf+wrfT35MMXSn4H6cfiiVfPv1y8eT/cPucWEfyEVlnxu1dN7eUxzsiz9v76g1bZ8pVGSfvbb35AqyZ6fsUySG6zt9npgpgfiIvV6fJZ4Z2uv4h3Zh/dfVZntPDNePOj6eqUH7kjQeqIJ0efJFXxdmy1NmZS7pCwhsPhjz1+ieMc869jP4Vs2ThabP5BGUHVUT+0QBBSdOpTFHx1NAOzSq+sKcITr7HXRAO9xAROUAWeOZy1QR6w6VormDFAwAaEyU2F4aMUoKEwYWJcAgSkkqxOShQlwIhTiN0pCpAofibeLEISKHsrIDgzxUT0nXpaQS8WIVqGm0hjhRx7pDpWCO5Cf8rjq0QFGH1UvuQeJatdwi1e9AwYmDIfeAyb01ilVjKVDCDqaAolQcukOzR0qSGZDp7qDDmoWlGDoUHdYiPRTfgfUO1cESlbAaXhKwNACNNkBDwMKgabZC2TgUSALi4DU0KsO23LLdoSSqKErZRkmqPCF4Z3vplHEe8tRYZyylSzuY7sYXdhDWGIgsowIqVu10EkDgq1ODmh0CpJmOJWd3qOhIglZzaZEoGN5lbFnYoZk8YLr3bhBhqUKd0WlD830WqkJhkhakeaZgnSQORjdXrDs7uQ4l1zA2LAtIXBFtvNshTCdeXho4jC1IqK8CFhibXHETe/5mG5XxwoMdeqPWd8j1ohQodgfExkJD3tk7BHCHNAv+RZSgQxi4MlIBRxLeMgpLhjzUqKUik64HoW8G8BaJZ5pcbVCHduGqHRrDivNDG+1kCO4g4rvoTC944Zy+Tzqub2W+jg07i721jPU8TLJ2EaQM2PuPzM5wlvwHZmd4nv+z8/kK+6uzM08ieYYCRGa0slxGbaSypQ+YzDo8Eg4ToZwHICdNiVnMFfipwDQBFlECciW6T68fC3wlS3beTFj9JsttmeG4mVbaZIX2flDjSGfGYcbBgitOp12OOKByeZAqDj6kvPdV87K9fLw9od7tHh5OL7DL/9snV/np9FzL1z8B);lineShape=1;" vertex="1" parent="1">
                    <mxGeometry x="148.62096307037427" y="465.80589444736256" width="106.20804912824906" height="6.042074232523873" as="geometry"/>
                </mxCell>
                <mxCell id="35" value="" style="shape=stencil(lVfLbhsxDPwaXwlRb53T9D8CxGmMpnHgpK+/L1VX6pJbTdCbvctZieSQQx7Czevj3cvx4N3r2+X8+fj9dP/2eAgfDt6fnh+Pl9Ob/DqE20O4eThfjp8u56/P99f/L3fdsv/6cv7Wv/DjimMqtYO8+/nnQSUXfj/5eLV/Oj1v7BOFouwDUypr+0bF2BdyeW3PiWrTALkQOMAHiuYEuSM4IfhxgY0L1a0B0VHTJ/hKhQGgUTaASDWBoJbxvQlwlEEWcqQcddoyeQAojvq7LSBSBE6XSCFpQKCEAIW8AXhqIErV2SixBNoDQKCgfShUK7DPlPWNJAvoQo2qSRt54HET/4Kyd+SQfSOnqS21xg0CsnZYyikADwRgbhQDORDSDtBXEipWVM5tlMrMgR9ZWQGCrrYqWYgAILWlqd0iMQIU64OciWpBALwDJECklinqsLZEDFqMvDZdVbgYUZTSjtqRPKJGslzKDvbtfmPdYmLCYZUrmUbMxIgau87NElbkQx7KMQE8CL9KXNDUwNIgVGJDJQooRtU2AFEjj6shanKLPnpEjDZ0YKNuHigDu9lTZoVK28FdxqQhl9EHV4Ck2V2n4K3CZPSw8dDgFcBIgzxxuKRNXDdxWHHJiEmvckzvZkpURhVc0/8AIK938iAAVNN7/allVPlS4Ew9iKgDp7uCajJVhhInTDAl2mUeKJC8Zt3IchtxW84ZBhAh+/oko7mRPTGelUqwJyB96NNYsz44UEEy7xnJKoEqOCHy6NUTUAfjVzMrGy55yiAPMhUnXXLCpQyoIZ2uaWoIfwPq3kMyNzINg0TZlE+FgwNbjwvD1ursYNKTBr7vxjQ77edqs7C3tJMvgAw4YtO3Jw8X9s7oc4VrzE4X4lzlVvY6/u+sSeKv5rRkPAI+OLuGScaxfdEE9XMfWPDB7RZVVMVsZzae08PC/v8W4fft5cffrfvh9PR0Xdq37+2WLo+uG364/QU=);lineShape=1;" vertex="1" parent="1">
                    <mxGeometry x="152.8876560733329" y="487.6236204617401" width="99.35278666748309" height="5.32303312556337" as="geometry"/>
                </mxCell>
                <mxCell id="36" value="" style="shape=stencil(lVjbchoxDP0aXjW+23pO0//ITEhhSiFDSC9/X3l2vCCxe2jflkXHtm5Hx7uJTx+7l/ftJriPy/n0fftr/3rZbeKXTQj742573l/kaROfN/Hp7XTefjufPo+v0+/3l27Zn36cfvYVfk84T5k7KLg/04vA5KY3Xyf7w/54Y5+I6529W7ev1O7Wz23d3jtqSQGiIwYb+EROnygGYuCBr1TMDplaXAdIjErUAPEhAEAhVxQgzYdcBERPzmtAowZ2iIWSDmt2VMAOKVD2FhALAMgBzJF4HHIRkDN5HaVUx5tFQPEUko0SZwAo1LIGBCrgSNVTNXlw5MEONY9SmzM9B3oZwBR1lGKkBBLXAvlgyxtluhWbOGnBBnxgcVH3g2+UQKY52vL2Hmaa7xpItgRB4kYxGPsMCkPs2eSZMnKAKTXrAAwRW47pLZ4QKblBcrckg2LExHfFnQDvCaBoJ64NtQYIOqolUkVeN5vnIoEDXkueDddLQxVAxQKIOkrV4UoqVDSNlQSpWADG6VwgBbB0tAYkWQL5MM+COdNpHHJ1B00yIY4wrPqgnfaRAo5S02HNuJTqoKBrvzGgGCkMx8YejXSxr7o/A04a2/5n8mh9pqp7RxjMYwJYECVgGnaA9jjh8dmPZObtPFtWfTaV7QcvrwXVcFKpj7Lm9Q7SnbDu2ij8fwUECrqyZXqhSdLa4OkZkMZ8XAakMQhmgPQO4LA+PrM9UgQc1ge0Lo3mqCLNUCzTyxIoDxJEQxhNWBIARMYYSuphAEcq3tJqqzAPfXLo0hBRgABd7OnEiShAuqfLSZ0HIakEfOg6So+3XvBgh676te65GcLLqjtb2cBz8td0fXb2TBkA5OZgVLd4zUg3RKsnOcGbg9x+jApgDwHVKtyGqVIUtinWhC9LNs8PGtRb8dkpA8yqWfzetKeD9kYN13martgbCuucBzLm7CgseRTJmr0ZzQxVm7MXvRzGBXzF3uv1u3wB+RV/df0kB7lF/r27C6NB6CxRiA52wF8/lM3NZK643v7rc8Rje3m4fvt42x8O06eT2//ttxJ5NX1nic9/AQ==);lineShape=1;" vertex="1" parent="1">
                    <mxGeometry x="144.66159167875048" y="511.8492089680026" width="106.4079218478496" height="6.197182409538982" as="geometry"/>
                </mxCell>
                <mxCell id="37" value="" style="shape=stencil(lVnLchw3DPyavaL4BMiz4/yHqyxHqiiSS1YS++/TkzVHS3CmVb7t7rAXBAE0GpxL/vDt/tPXu0sK315fnv+8+/fh8+v9Jf92Senh6f7u5eEVny754yV/+PL8cvfHy/PfT5+v379+2lZun/56/mf7h+9XXIqS84ZK4cf1lyCm///w+3X948PT7foqvUzro/RE1ndpOq3PUsL5+pzE4rS+SixkfRFt03qTGMl6lTjvp0ti/2/D/O5vlMoMNIk2A7I0ZqFJnz2IKomEIHeJDtDESAxgQWcfELSfmzxzWsMMyFKZBRXtM6CKMaer1DoDTDrLiyJ5zoscJGQCyBJmH5BaNJPiOMQdUCR2AghS5jhsyUW2dFALcJoDbD4lxF4rtzBHuqC+WeCCpDlbS5LOki+O8toBZYTyDNCcBeVxSD75ilGnEaY0U1gNfEsqdT6lClJi9bDUdC3SSWqUsGwJNkl6F5TL7HTtdEsFJDADNEgngJpGQe6ARLeEHZe5prVIIIHT7FuDKmU+wynNFaddMgmcVR84AxkTpxsszD5YHgd9DFjbSaX9rYF650hbow2lox7mmsYmf9o8BuDU5+RroDaypa6+ZbU6DvoYgPqafWg2WswxoEmbTwnH0Eg9dPDSzBo9jFAeAmIInr47EpiEGiackMHBJQYwsdkJHFwmTiA3ynyusFkJfRu8Dh7QWH7DwlwQN+dwXHPNsytMMP5Gkbp8BYB16rr7eAPIxAJ4w/XRLV0YAFXdPCCRQMBCcoGwoRqPAYsAAoC19o0aXb4qzT41KdUDGLsa2uwCKKRIQSslLxYYM2WvmDYfWH6bhO5PifFGQyLYEgeS3wB0t6U2qvaMXbV6AJOJYLo1vWlRxyVwnQ5Atovz24ojqYEu51r7u0VdR4Hd8gY5JrR+6x5Ae7t56QoA6+2oUVMfiEJaBADNsQAX+NiSqgcwMaBRwsLfrAltAPslQB6Pd0Clel0XFbc1b+aDjRnmpsux3r4BnBjoVJ9AgjkWQE2xtggfirOwC8FjQPGd+q1RnpFrdHIj0XFUFy2AzsrigAahc/LZLnHOxLFjY8g+5kNpPjUgLDMT+MXfa0C6Rj7lu87+1uvPBl4XOFWqRDEsOq2LUDL63u5+3MyRJRGnUxqPd0CkcYjNk8AWe6YTq480ej2bm2L2rFE5CcQ4CnIHVBrp7lVi5SOHLR4Eul79nQDGYybg1KdF4WmhvjqRusrkm+e87QaBqTcvD7crCuqv2w8qozI+8p0q25DhJ+fvkjrXQQYn8XV6OBdK2XHpUzmOG79jQBoz7X431se8dQwoPkXhFFOrqJrsbt/qUMjHAPVKb7vGZU6bv1farhxZ5dsy+jSqw7Aldfes+ybPnHZ3MuAClqh4XOdMQijZRRQC5xUJbSIx+JHVqAfNz0mVjp/FT0mJ8kQQnRtUpJdoS0+OkkiOBi90IpXAi2YOQ9cfn+SYed+WM8mSPYUGuve6/jtL5eYnCn5RjaSK3ld2NEhLd5H3TosE3Ue/fbYeI1lz6xk/b3+X3Hr2guSX3zi9ux4f3l5vfXl4fLy+Hbt97l+H4afrq7T88T8=);lineShape=1;" vertex="1" parent="1">
                    <mxGeometry x="177.08786733000625" y="356.07663478349787" width="17.433214178217895" height="166.83369085037543" as="geometry"/>
                </mxCell>
                <mxCell id="39" value="" style="shape=stencil(7VrLchw3DPyavbL4JnF2nP9wleVoK4rkkpXX3wfMhrOL5kxvDjkkKd32AcwQINBogDylD98eP319OEX/7e315ceHX8+f3x5P6btTjOfnx4fX85t+OqWPp/Thy8vrww+vLz8/f758//ppSI5PP738Mp7w20XPu1KHUvS/X35oybXw5y/fX+Sfzs9GXsTKBxflWD64YJ9fu5PO5GNH+UzWE+a/N/I1MfmSrLy4Gpl8zWhvovItoT/5erq38tVl+vwO65Fp0d+T79E16v8erXxx0qi9dn+77i9dT7XxI7qDdD3FxoMkl+l6/vp3k8/UXu9axueXzOTLIi9UPnuUT8Q/HuNf/SOeyQdrbxfXCpP39vm9OU+f72089zQj5Eje2tu9S2S/VN7mr8Z/p/vlC+YXi3/1j43npjtI1x+tvOKJp/ubAE+qixQ/IT5rmQh5IF+tP2u+k19ZcP1Cnh8net/iG9kv9Tb4P7tE7C3L84vrJD4b+kfjwRP5oAER8QWRAUp0fUHoxhC3LBC9OXlfoSOGjj0gb1hBWoMoEBtidhWiKNOoU7cmCKNEy2oUrGOqkIjRKcwycaNQmUKeJt4oRBKpaSuMm4IGL0mF1Bcb/KzmuwpZyYrdh9Ip2OWE7KBUita5Lm/IfEnKZiw+FnU0yQf929s3ZJmQv6+g+2oruC6SMcBSsCTnTEtmafN5m0Kk4V0Ei3ISl4nRVVmFRSUNFgYCI/qt0Sk6IUYPlLZGx22R+woVczrWmbT7Ch2XpFjLltSW0qk4kkjwtY1pTYUgs7rvK8QZzJtCc5G9IWOKDvAkXrqC+6aQKWq0hugdEuXvSo+rdasWgELe0MMMtU1BOSjZOCVEkNNak1iJ68pIPSoUpqCosSgEsnHK6SKwVFdIKClnD9bmTkmqyncbSZxEKict1oBCIUb8rMhberpMwmj0EPb5kdorij82dQJtSlUeknkDnH35hF11oNVWe5QIMTdp/ZG8WP942oRImRF8lWeURzTgBORZkyZKLzLIs3iQBev8LHP78lv4XveX+lOwy9SmhcsjAZs17khelpSnXbtf+qLAefx4hTVBwZoNEoaCRUZliaxzGUaDU9sEpkOvQpX1lHWqApB5ZYkMV1QBugV9A2POqgDtnSIdNXqbPm0KWqFYqinU2SVdRx6HCpDLjYK1LGCqFYqNOGTr6K5ozYjzcJKNvUwp5NgFYCK0JRfBiqm8nK1/C+RrdjI6qPLNbkGhLfzIBBvYQlvInVRTTsxayJ1s7pRkj1eAiyLl/SM5QaFS2jKcBNks97wEk1BNzsAVUkGF+I8qaFlIaINnRi91RyGMkey1sKkCjb2lcuo+0ORZSrMqNJb+S+0fO828tJALVWAj6ZW9qEJgNsQFVSuv5wF5v6Yo64MHwSuLAtu4ZY535w19i/4bBcY5x9zaowKr6YM0N1RgIDBYORidae1ZeX8sNFrXzkIVKvNSQuI/3Mq8FJYutVJaMvov8FKjyDc6PIjWTnN69JDwBt6ajy4Vxgt+FvnDPhigMs4G66jThuBLysVIiW7LWDtVypRqx44qddoCjHmERb6sPQwbkRSchOdMiU9NSNJzoxS3LmdBhQ8wxlzI7nTJdBI7Jk8wbmt0ZFjKMm4TmkBlYwpb5xDmIg/nc8voNtyZAMIUs9GpzZgxwpGr0Ao0pphwBhwp3OflULclWhTHJBZODbah+uGsF4b0bf5yOE2Gc4ZOz4XWeXXjncM6EW+djnnGzD0sb2Az94z50D1XCLN8bAqceY+TCTgNLvx0vSzHwZ2Sk3G6YndaAldYDhiVEAU29sQhpnD2U5YD1T6r6n5gIHSPdoidxWDg3XQH+xbjiaEuiE3//pcnzvSE9P3E+b914vx+w+f9ho/x57/qhk/AkzstGOxGxHojaOPaR/kSUZ4Ra480eRQkiieI5/fwCo76pdy54ROhHkU6jPfozy70jM8jPmhby3jTKn8P/+OC/2xm7HG6qTyO5bvHKVbjlzM8TkO13+T+hAnT3RuY925s6ofrdc8v56eny23R2//xeqj+dLlamj7+AQ==);lineShape=1;" vertex="1" parent="1">
                    <mxGeometry x="359.58279837863483" y="286.3697153756309" width="420.61250011594166" height="16.60414551453573" as="geometry"/>
                </mxCell>
                <mxCell id="42" value="" style="shape=stencil(lVnJbtwwDP2auRKSqPXc5T8CNG0GTZMiTbe/L4WBVJOyn9vbjE1aXB5XXfjNt4e7r/eX4L69vjx/vv95/fD6cOG3lxCuTw/3L9dX+XXhdxd+8/H55f7Ty/P3pw+3/1/vOmX/9eX5R//CrxufIw6dKbjftweR2u3B+xv54/VpQ+4pFEXuKbVj8kAhKXJHzh2TM7El9+mYPFKuRhgPhMlWVU81HpNXCk6Rh6H7vmUcBTb0LQP6QMzG8h6I4yPFqOgTNWBLnyl5RV8wfaWUFX2jVoFrHWX9fdHIgwPEHkYgUSkDrIlB2ICtUEEMefh/usCTAwASHzstkpwZkdKNqhZJrJrACSwY0yhiCQEAC2aqGqUsQAG4YIGB1oHjMPQ+QyVvTsiUwQlRcoSOM/kEo7gMlHUcs9gNmDVGqppBzmwMGDI17Qc506MT6sLAMNElN5LDZEjD9/sMAm9zglgJ+CHFIfEMaFEamDUlKtpK8gkHEl4qNp/KkwjMmho5DY0sZgBolddFK52xWXMY4TIZMkXEEIcRJ0OlAtKMfM/pE4qjiHSQpKITcQnDDPsMzZq1MDkAPhGgOcuQgB9EABNxJY6g3WeQrOEtQ0EiJWKd7eUJ8nTJVHVuLQWLVEfamgyVIgig6gaYJ4PAEVip+gG1zQkoRCvbAOoiASzVNNy0URoyFNvwiN08EknAbKwkFQgkgeZs1hCweJBmmqesPS34RfWhBZuMJUJQk9d4NAqbmEY1riXraYlyVB/aNOKGAfUaTfxgRGLySKS65CUeEbLP0GzzKSJBpRuVRWnUzbRZMzdmTUjpNsrHxtMBeVoYTMTNInbQ487+fYPvgJUwdbdMOxwy6KCuAfat3Uw6giRqT0QyIVczDog22qMNA2qYhCEtIsEIaiPmJwPDXCkMrD0n2fNEB5vvy+h9/5WBYR/addDQEPTVE6VNYjoVycZoOmMwfehZ2mi2QOQ5gxyCbxHpDN66okg7cxZAJt97WIL2YjTBqXsnDdQzfDeDbz+eHJpJZ4Ea4djUHWEY8hjHD129MBTQPPw/w1IhJKghvqUGtUUHBKalykk7AR2XRuXfnNCQSNFCQ07IyA/B1qBaseOk29BKS8Ny0s8ErYO0E6iO9o7J7CnSaU9mGArctPRkreEtvkdZYO0re/ZEDEvn+reK/WNvvAnzw/ab7RFo9usNfrVao+myjxBG6zx2F4dDikafeK4ArfsYVCwDFMnZIUUQj1qmPspFy+CASH1YNHANcE3WW2Fzgj8beG3aaDBG+0itPS2IZySSWxqgCGe/VG2BEACjKtcXD2YcrbCb7qsNw5Dg7NeXJ2bQ8rBN7OsZrXRvjpFIgiVTqfN4crhiWpoHVCD6Ess0QIz33cuaLGOl+yLOKO3GJw5XfTriUhtb88Nlonac+B4tdTnZEBXfR2AlXrJGYiySH5uPyXCyBV4miIiLXN+k6xNigmmmL6a1p+PJrjzavCSGrqDVDWEYcTKk0UIdre+TYeBRMQ7vB4xIHvrBZytSmFPLPkMcBWq7XEcMwd7odEMDK+3c0SS4o13vgBJsHZYrJqGPaLVum9CAxwe2Q1lXGPgg2Os6oUf3G942DWEuUnbpl5sBcXHC9M7Sozl3aQ7FI6gWuuGdjfxo/ebG3nbrX4AHN4rSpA8Qoc7eL/kGo3IZ3SSIEB7W7zPM787uxr2HeciNt7Pwjzp9RG4KGkxa4l17o5kAmP/zqvqUXH78vRX/eH18vF2qb9/bW3R5dLuB53d/AA==);lineShape=1;" vertex="1" parent="1">
                    <mxGeometry x="357.525603826718" y="554.6101957078529" width="419.6500064344009" height="11.922906981259302" as="geometry"/>
                </mxCell>
                <mxCell id="45" value="" style="shape=stencil(7VrJbh03EPwaXQnuy9lx/sOA5UiIIhmynOXvU4zA0WPxTdG6BUFuXroe2Xt1c27Ch293n77e3nj77eX56dfbP+4/v9zdhJ9uvL9/vLt9vn/Bn27Cx5vw4cvT8+0vz0/fHz+//v3rpy7Z//Tb0+/9F/58xXmTXAd5+9f4h1L/+YefX8Uf7h8vxJ0plsSdPRe3xs7izljx69b0/7oQt6Z5Jd4aiRdxmWB8IfHYzsXzOPtNPDhhGZiG5V0W8sVER/I2ncvj+jmxvNIW/83qSvk81Pux+0TPvtX6xmwqyyt7JniH9VXuSgjc8I5oSMEkvo8KthxNme3p5X0Kfn++TzRB/H4pps32TyaIXKmItzjJ53Hgdflo6nyfYrK4f80cb9VUEQ8V8Tz/fjNNy9N93JHPZ4A0pztSrhWpMWnggikiROsR8QcgGad8BpcSAE4QJ+RmIhVEmCEKQB1BcwCqacLNAKQ6h6kdl7yugzN+NiuKtLpSycbOjuuVVZnVcVlHKiRxQk1cupALVeRyhdIEKLIYtaV4IbqLsFJDIMxmRX1VOrQlfYIzScRSq6x08PqExtEawvD9GYAyLiBDhFmdXfp3SEOt0yPyDMijLZ4qMUdfQEKItgAz+blMhjrUug4o3NcCLqmuhLo7Xyk6yYkaqsDsOfRGFa4tmDBbKQattB+06QAkbVY3isQBQLXXJ/jZ07HJsgFAnk9Aw2465epsJXTsrOLbD5scgGiiqPf9SgRIOwC1rJR3AIqlhK6nlabSl+qgNaeAOfgyyreKJc/1PnvJ8wBosx/ypmwE4+hKaWh1GnxzLGVwaUVl2oicA6BzunOTmfsUTfZq4J5V4Ht1Jcs6oNer0aU0rholDYJ5BiBPo7EWRSgbN7lS5fAFQJlDo/+EBrTZrFVz4k6Y5nyoXpLWKycESWc6YFYa5CBuAHRClnUJgDr7obMJUSo7YDZrsyO6TgHEjN2gsqc6zFUDOWg1cfV0AnqSSiBr8mzW3vU0h6PGDoKjKh/cRAmERiwzrplMZq070kctC2TCqXlgabsASE+nxUpNMgEURmq7TQ9BaFBuvtIF57o+RsdhxcsjhKvB2OxypyL6LqhzWbRWrgb9j21xhLCrXxo1XF2EDqD/PjFAhSu4tltOsEJpcEIaLhGuKvpAj8oCyCL60MdzXgCqMDnm9wCo6Ot1pixKqwzKSwZVuZNBjoYlR5XSANglWtVWCWWD5t0efCpHK69xengLpTGCh8iAphZRlT29zdEykv7yCGEmzDxtSTk1o/ilafVSpnIUE/dyJa9SblkM93KsTngvwC18ph2V5zoA/IhOyLKPAlApmHSXc2UsMn6wjwLAOuhO7cpSBTQXcGWplZptdMCcEBs+03WgRZ9mTB0wm3XDyTpgVnrD+lzhJrfhlVdO0MwVANrWb7ixW1J0w75dHU3zkt+r8G68MC7HJuJ6xjkuMyXIOcsvC1FMQSq8fR2z58WclVQhW5aJmOTUyjV4JtM5S8eFyD1rM40CEGdPb+ZdAOihYjNRg2E5AuiZvQNoFaK3Ap3DzVba7B2gA03Um80GADQrbnYnANDeYbOd6YDZD5v9T78S6aA3TLASrQY3OywAqGrEIheiAFDbjUk+oqCxe1rcBUm+A4oKLe68pMYAkKejk6vBsGwFoh199TqbccOvFxtXxUP7y+DMsIImrgDwcj1LpXEl2v/0vbQ6wTI17qtvFa2Nq3cIGrBMTSht6kr4vfVFQRFXFGN6IPT6KQjlnloWRjuVD2golA8YvFRDcetjU5S81QXeCvigXy3Zb17X4sSMr79+qVdjZlfuOPH6uDHeQA95vVd3nrca/YVQHID70l7dJTmT+cyc1cUxLZ/1aHpYd16+PiBSaU3u3Nj7nYb27AVnNcDz/qrqSm+5SpZBI85sRL1HU7H+VctsIl1eYEBKzSDls7EUpfK18t/2WQx/JvL/ZzFTa1qs/1/+LOaNxB25Lt9JOoeb76+/IIO8iyQvuQQaN8urFhaXeAtyiRwjl4YgR6j+2MzyG+bOPEIvdhq/zgXZkPrxfB/ZwAoPaPo+KIWF7yPfCTjctDlB8Yn4SW8FHhZ1MLzzY8itOP7w9t3ll/uHh9fPNi//n7/TxD+9fuMZPv4N);lineShape=1;" vertex="1" parent="1">
                    <mxGeometry x="360.65225568225424" y="301.56851860389884" width="8.919289720562574" height="255.33780569138798" as="geometry"/>
                </mxCell>
                <mxCell id="46" value="" style="shape=stencil(fZbdcgIhDIWfZm8zQAg/17Z9j85U606tdqz9e/tmZ0c0uJ47xP0I5JwEBl59bp8/1kNwn6fj4W39M76ctgM/DCGM++36OJ50NPDjwKvN4bh+PR6+9i/z74/n6ctp9H74nlb4nbmSKZeJCu5vngmZ6jzzNAO7cX8FVKEsBuBKrgKg9oAE8gkCbLeUhEoEQKSUDZDLeWYRKIl8MEDRmHwfyBrBG6Amyu4+kDxxMoB3jhwgYu7TVAsVkFcWCs4CTBEoF4RctKeOxHIf8IXYpikHikAIf+MNUW94AGSSaoAoFIE3AlOyeWU+p2E5S9yfQZcQILVuQOwZdJNoS9Ls3wA5u2XZTIHECqeJ9kDpSaauRiNVcAY1QhdBzeLBli5WazpkSsBLV25uRaqWRyFawTQzRRIQYirJzq5atkBqLfouwqUxLBepthWb10vrWZY6UOAeyKCCtDV625mm9gmUC4Wc3VLJMMIE1BsA2FW9JraVlQB7n3c9oMKhCLEvIM1zBPZ25/umNQ1tVEC2G+fFCC8g398O2hNQuQlVu752DBfA+q0ptnqO5JFmeuIuo9DY7KjY71UxdJV4EntifPWorW++R/dC4t7V3DlIB5cHx2bc7eb3yvX//QNFp+bHDT/+Aw==);lineShape=1;" vertex="1" parent="1">
                    <mxGeometry x="778.8680829127884" y="285.2087475171129" width="4.672539772115215" height="4.665236216357698" as="geometry"/>
                </mxCell>
                <mxCell id="48" value="" style="shape=stencil(7VrLbhw3EPwaXYlh8312nP8wYDkS4kiGLOfx9ylmwdGyOFMbAwF8yc1esWbIflRXN+cuvPv68OHL/Z1tX19fnn+9/+Px4+vDXfjpzuzx6eH+5fEV/7oL7+/Cu0/PL/e/vDx/e/p4+f+XD31l/9dvz7/3J/x5wZXgfOko2/66/GLO539++Pmy/vPj0/V672qc1nuX6vn6XF3i9Ztev83rN1eLXB8qrc9qfXMp0foo1uO8sdH6sIn10W2F1kt7lvHnt/WbWF83l5b1Yj81DnP/y/XFpcDr4/n6BnPz871aH1Z/mbB/Sy5yPET1/OwK2z8HsT66PMcDAlytN1fmeAhua9I+dZvWR7mfinyZ95+lPWt25qf1xQUv4yHM9qwuq+cHjofmmoqf4ArZ0zvTL2hEEDYo6TSiZwt5cJhwAQA2u8BH5wUH9TPTG9Kw8jHAliDK+tCwyRxFvoy8OKaJtgDqILIzXmlznvk2MvUYkEcc74VAM29ZrITSoaiigLpmPyB3gnBczq7OsY3kkcUgDKvvgOyinQNSW96A+iM8nYqz2azWpB8SdjwDAnyvtmRcoIKNDDkGoKASQFNMbIPhdkB2QQOMAMUVUaQAyLOnQxubPD4DQmMOvrhpx/nBWjvAD0OfmnX2Qwyjsh8DAmdcTFK5AECVOSL4hJUAICkVyzDDWSz52Q+xjneeAQJtqQ05dgYgtZO0nOqAmQTgmaasFLmedLuJgpISCxj8ougefy7zoVN2TQVfXt5QJM0AEGfWSHXwyBmARAOIp4iMA6DOgHzDDwDYDLBh6DMA6TaQZ1IZl9lxOd4CRNpScklbiQo7CoDS5vB0pjeU4ZlTMp4d19uHGyk6cyv6ByX/QTOU06h6pvzguSii41ANQ095EnyoDyIfQCpUFFG5m6L7PDqQHRBHOB4D4njeDkiuqjMEjlaojyp4KRqrSuibKvyAapDnWCp1NAbHgI3pHpKrCNYIlc+A1qyILaFm0huql9I7LEQGnZnEGUJgMu5qX5AxpEihZgDdhjq05xqHflEe2rj9qU32tzg0KQF0UEokdmUxE1nzsigi+Gw+QzM5wkDGtdmsaGJV8IE1qGdFl9kUzSQeerQsu0oAIp2hOC/IOC5td7st4fwCUFV0dVwZ5Hks1pfJQaujABwDFjXTNHujfJBuBaCI+gCAp0M3Pa2KY5hyBVC6FYf2xgC1pRRZCQDQBADRSiXLb3rkA3LNy56a4pk85NEVQA1NwAK2mEkpXTRV23JqNSaysmypSjP1sccCUI0cqI9EHwAmXN3pe0kIxQKoWRzfZTzirLLzbKYMQj8jJj500cK1LeFapNiAiAy2WEnlaOJmtPtBDwXC6mn1hjgC4SqW1Igs+4XJ2siQU3mfGKCoD03VuiXZNX0vwCMQFsepjsMXlgIoQcoPHmRNjkuykfOLnEFVVIXaG+vQpluUupCGyRY/LjXRj+nO8YZcJgGnqXjj4lCrLA7b4JMrNaaev7QONcnWISxaLIxh8HHUcTWE/ozCw0tLCYGr+rfKVaFfbqjZ+6Lp9znTsX02noGiCcg3Io6asTJ8fgwIbptdhkZGplnkrEGrpGQVsmZtxlQj4/f7gqt2T1WRPnmmN5gsCsh8qrX9UlBVc8/j8bJJtWo2BphXbbcJTyOVqbfKRUrDfgtDgCzvlQCga4ob04w+qp5D48a8xJabqBsTGQAijXBMTvc64dH4w8sE6oxBg64mOx8AKPhSlaM0eDrSOLDI4US/PqY35DEVPY7WNhrUHRAli/nKo+VkOqeXiUzar3dOATQ03WTnA0BZ5rjqqgWHJl5CW6AaGb/cL0Fcqj4dAOpxY9Ks0cbUdgfEoeROBcacD29ToDPmI7qP+qrFL4PfoMMbZEzjj1DlcKKTMV2EFHm/BDImK6GNUJoBVqL73xDkPR/8QLyEzkbdL3X2pkNv8jYUJEAZZ1XOrWyR9PhFNaBQAka3cMkF1bzZYNIdEOTAEVanPqYzlfBDKMtNopeXzAi1tty3etXY+0Fbe2NfpePiQsZej3CQkPxtT5Z6qac83Uon2TTEPD4e2AFRzkBj4ZIFyaUUGQBUUCDqVD4AQIMu7+VIM5Z1wKJHy3UZOMrYS8uMqOprEM+RVPTVT+R2NeuLnMJ9Q9It/cafNAX9SVbgkm5S7P3/SdntT8p4Pz/6kzLj9f/xJ2Vsnx/6SVlb4zMq/bgtgwKTIqE1ZlGdMH2IHWi9Ui2tsIFMjkZbYg1ikqP7WIbKt5RdtfHo1eT1Yr/EWp6v5hDGFzwmx3elretVAUBChsT2UQmcFnkjW82y3FKbnOt89ze/N9fjH28fGH96/Pz58n3y9d/5g2T8dPmYObz/Gw==);lineShape=1;" vertex="1" parent="1">
                    <mxGeometry x="771.8347356890936" y="289.66128297901014" width="15.974605439385869" height="272.1335853725691" as="geometry"/>
                </mxCell>
                <mxCell id="49" value="" style="shape=stencil(fZbdcgIhDIWfZm8zQAg/17Z9j85U606tdqz9e/tmZ0c0uJ47xP0I5JwEBl59bp8/1kNwn6fj4W39M76ctgM/DCGM++36OJ50NPDjwKvN4bh+PR6+9i/z74/n6ctp9H74nlb4nbmSKZeJCu5vngmZ6jzzNAO7cX8FVKEsBuBKrgKg9oAE8gkCbLeUhEoEQKSUDZDLeWYRKIl8MEDRmHwfyBrBG6Amyu4+kDxxMoB3jhwgYu7TVAsVkFcWCs4CTBEoF4RctKeOxHIf8IXYpikHikAIf+MNUW94AGSSaoAoFIE3AlOyeWU+p2E5S9yfQZcQILVuQOwZdJNoS9Ls3wA5u2XZTIHECqeJ9kDpSaauRiNVcAY1QhdBzeLBli5WazpkSsBLV25uRaqWRyFawTQzRRIQYirJzq5atkBqLfouwqUxLBepthWb10vrWZY6UOAeyKCCtDV625mm9gmUC4Wc3VLJMMIE1BsA2FW9JraVlQB7n3c9oMKhCLEvIM1zBPZ25/umNQ1tVEC2G+fFCC8g398O2hNQuQlVu752DBfA+q0ptnqO5JFmeuIuo9DY7KjY71UxdJV4EntifPWorW++R/dC4t7V3DlIB5cHx2bc7eb3yvX//QNFp+bHDT/+Aw==);lineShape=1;" vertex="1" parent="1">
                    <mxGeometry x="375.5345868190384" y="325.2087475171129" width="4.672539772115215" height="4.665236216357698" as="geometry"/>
                </mxCell>
                <mxCell id="50" value="" style="shape=stencil(lVrLchw3DPyavbL4fpwd5z9cZTlSRZFcspLYf59GbThaAjM90k1es5cEATQa4F7Spx/3X77fXaL/8fry/Ofdvw9fX+8v6bdLjA9P93cvD6/465I+X9Knb88vd3+8PP/99PX67+9fZKX89dfzP/INP68470oTUPS/rh8EN64f/H5d/vjwdLM8uKCWZ1f98froSlrWY0Ofj9cnV/q6Prgejtdn18e6PrtIzl9dVt9fXCLn7y5F/f0jkfvxBpBcJAaH6NLQNzTIiXDhyoTQXYwEUPWdhsJ93F01Tv5/z30ne9f8CoDRgwCiq3UFRNfJteLWiwFUYgMcXYo5EvEDPK0B2TVypOQNoLpKQjUhF7J2nGc7wOioAZUlD6J7aACLpdRdVkcazpNYygjvFQDfs/zJ0QVFAHEGyz4guaESqEyK2gcU18IKGC4WAmj6llKit5THpJQNMGZK7QJKmBw3AThkZQDcyZqihdNwMSRQ2ryGfUB1fgVU7EBSFN+nWKMWGq0FobamaK1ukGitftLWBoANDBBcNgBfCSDOhLyxIbEdkusrkeETxq0V1UDdkp+f7AOqLqBlzIqxD2guKU+DNYjjKjhi5SW4MrGSOGYgbIBKw7sFTQIFOUhsaPDD0IDMANn5ogHMcQ3f1z4EqDpaBUBuqXXNGmIDUw5+xuYtgCRQD1NJbYBMi2JP5pYSZY2etdYA8STi6V7Mkfzk831A1cGXK9VLvemiiIrBiKwbRYYiFpgNQ++A+lAIawyYqBTZRp5HAC1C09QG+4Awy/iNyq0MEF1erxVlN5LgG5v+uinslfhhZF2nA+clAFQCARBIxg1whAL0Wer3AXVH/lDHNV1QRGCRfBh9ZvAGaK4zG4b2A4xmqhIA6+nMjjR0BYqcjAFQeilt5HkIWEMDkouFd/BgMsUCkRZq2WK1GpWYyUqxeo2+Oqh2kHtdqyIqAOsHACirDSD0yo+UDODEcyHqI9HY6JOsb4xmvSsAXQECpT4BrEeCrOzM6K79IPqd7zBWhQUtzcQ3bsmrfqBQwQRAVAkRaAkSxxnqC0QwjWFmDn5+xRGgKTZGp8YBqkCkQNWJJJDpOAahvp0cRddSeHwPI0TZZEaMUNGH2k0qtVzT6up2ykyqyW+N6hlx9Xok5GhnFWIXwFNOqW8IR1pSTA1qaYrfd1a5xlsOW0chrzvbwVTqdkLfRgucAZJLwRzpRM90YzS71mD4HofkIk6VIADokSCo1C0VmkDdMBmilY0qu40lyAkGaJNVJgA9BYtWUd/rDj3SXlH0fdSAkw5CKSZ8Ukho2B4Fh2SOky5ojaXOm3zbZwHAJky2k+t87mB7RQA628F0owCwCZPtdztXrrajfouuw55d7TBmxdgHmIKCDEkkWquZGiNp2VQA5UPFknQtJ7OT1eiRaYrKxGqNJSFPNjtJWjCNRsNbJkwrCbwJnHfOsG5K9+GYLOgtWJGTQVz+yJlk1Fe01eFkmFi0I1hll3Hlek1901CHA1EFyPSWZOSq5Hqj0SdDXUXfgTYEMjZW803+jPI2872R60z15W0MfTO5Y02NiPM1NGRixGxACq9G46Ize1EwDwRlewF85xOEeIYBzCNH8XTqZZ9RAGAthzzUqBETF33yFKQAjYa3fWwS3zOAec4CgPUo9sEMACa+5UluDY1c6Q7ytNS10Sz45LXLdhwMkHULfjJ9DHHKo5sJKtNwwbxOoadhFaXrdACfsx7fvB7L/J+9HLmu1ldKSkmHBYoqy7aodUZtdPAYzPcneh6vh1HgFzYq8ppThT9IlPo5MdzW8/rs9SMWyIC1Dd4MGzrtcY3mgUcSKbVmfdi05dF6VfzP7l9J2zED9ug6FZXShPRmskJJy+uRsp+N6MFy1e1wmeN1avmTyPnQz1ZOl+OPt1/IfHt4fLz+wOb2//UvavDR9dc46fN/);lineShape=1;" vertex="1" parent="1">
                    <mxGeometry x="376.0988542534383" y="325.76110915677987" width="393.6644818965133" height="7.786979465125114" as="geometry"/>
                </mxCell>
                <mxCell id="51" value="" style="shape=stencil(lVnbclwpDPyaeVUBAoSes8l/pCrOemq9dspxbn+/Yqcgg5jTdt7GY3qOEK1Wo3Pid1/vP365O6Xw9eX56Z+7H+dPL/cn/uuU0vnx/u75/GKfTvz+xO8+Pz3f/f389O3x0+XvLx/7yv7p36fv/Rd+XnCBUu2gFH5dvuBENfz/zYfL+ofz47JedVmfmDIfr49+fWwU4vF6piTr+kqhHK/PpG1dn6np8XqhWNb1OH4lWfMTLQMZ7DeRrA+QEeHt9YU0LesziYD1SonXgKiB/KREZY3HThzEnwqJuvUB8CE1UnbrBfw+x5G+SSAS8Pts6VgPuFAB58vi96tUQf5zIHaEyBjAFFdG2I4zAhiB1wzZFhrYcraUupo0zoGaKUaBtWjYkgRIXeYWJ0CpJACQUSSTpTyE4yaghlHlE1BhlmqivG46KwX0BKvz9QmWBgbMqELBMSlDalcdlTIBdRT3bW2JXkyLpRUUgxiX1j1YGhhsWvJgzgQUikjuKvEqL5aGCrgk9u91D5aGhkJqPiRLQwBcEt0UMlIEWWphVPwEBNijWvRckgCbTjPyxQ2AQrKmkT0AnXTLoyCvAAp0vhVfopYl1Kha9SJgAEVZar4eBJOvWT1sANRLNHjVsE03IAIaRxIn+RpFBDCzsm7aZKGids7U1pAqJp9mL8amhRBQh6hMgHU4QD4DuI6YsWVQGQ7hSowz0CVtQ3onIFAEJaq61XSGHcgA1dW09WFAPgNkV9MWJAY4IetPwHuIsu0B0Ftnv7kuUaCtllbnbWuFMtMBjq2mGq+E5LhUKOEshTWkEkaijwDJ2c86DOnhOTjyZVzT6mvaAAUonwEk+JBQQ+lsdU+YaTgC6MrWggsohrAdRBuMfyvClAnqxhaUNV7GgOZqjklwnsR1uTo81BuPzoo04cRy8wBYERv9pOCa2whuPQhqn3ojagYImbgbRZqgr9xlwGyioh60CY05V8V7cFLWOwTWjT8ENCqb24hIaGR4i6tzqIitsqlrwedQRwAToMOl3QaUYdkGwFxawl5AV2o0a+0IsN3tFV92zc/UdQ9mJxjtIXjnqtPWHXqylXyKS3R3fdogNbqvdCHNKn+jc9U5RDn0xqsIXKnnof1O/hHQ66ZhLq4AEcW0XSF6XtETgq8gYzy8mekQ6wkow8weXbSc7TMCZwSQYYUnII7DP7osOoNvbGmgICT7kIwtqEatQzn22VEWFFL04y5LNJqP1b2jYDddbwkTutVYH5etBaE7Rx9tbJdFpAJFN2MpsLP38cxmNpD97gMgd8vHae0jpn0WAgB5mwvaNQhVXN7uTVngAKgP4px1jbCj5Jn1qzEZMhssXpg4jlne4bDSzQYrfkL0WUoZXnj3cWtKkEu/Z40TYE0JhNQHxtU/AVmBPpFeu2Ji6H/6yNuNgGX4lcOZuptvBmrI6foKtYNBFk68XeJX6m0bbgZo1Zl4m56ilxrJjwWtOBjdNvzc0S5AaNhqvcqNTusrL31cuzXBQc4q+P32mQnIZ7gxaE0wfjeCL/ilSdhuxWno39F6F0+AjXMfduPev90N7Uocwfnuvx+hUQ2DXZPPDYpE8HwzYUQz3zA0aq5nODT485eMr623D7/faH4+PzxcXohe/9+/AbWvLm9P+f1/);lineShape=1;" vertex="1" parent="1">
                    <mxGeometry x="380.1766209948264" y="360.7520299301352" width="384.25494626490035" height="11.76673691097858" as="geometry"/>
                </mxCell>
                <mxCell id="52" value="" style="shape=stencil(lVnZctw2EPyafUXhBubZcf7DVZajrSiSS1YS++/TyBoM0RRb0Zu8nibn6Dl5SR++3X/6eneJ/tvL89Pvd39fP7/cX9Ivlxivj/d3z9cX/HVJHy/pw5en57vfnp/+fPx8+/fXT0Ny/PXH01/jCd9vOO9yHqDof8wfvP/3h19v4g/Xx514cLkt4tElOxePLkQSr+Lp0fVO4j+1e1U8ucbivp2LZ2esTBLKVJcCiXehTHPmF/Hksni6ubaKZxer8HtwbY1TcUXYGpKz1TfN+SDk64zjlO+uFyHfna36BC8BYE5NKyBJi+GQXFdAdVWYAAvJBHA5KfqA+0SIJEOckisEqK4LG1J1jQDmahcURfatgBQljfLGsg1QnBcZmaExvaG7kM4Bxbu4Bg5Kmoh0SZOZGyC5Krha6vT6BgAb1RuMyZ1NlqEana3UKNEVBSiczaVIetc+47oBTLq1hVl8JqAG6aWWmEsVjhb50GDDGoea9Ru682sc4IaiSp65bgwwoVIPnNO1ypLdo2uJAT9byusAeCmwSlGplKcTd16Sb9iet4uDyjgA2EtoiwpQXSEvwW/KBlQ+ooaf73wd0DmnB0AZbS4aq1RF5TPU1sJeSiLSFuZksAucooZFzjhQIwujLR0ATU4jlg8qdVdEEbDCDaXajMzrAJDZM6Aot9ZZenc2BEENawfyoSmKumRb398KGdglWhYAVGZGbVVuRWGkcm8ygQBI1IGarHwAlAPAVByMq8boespom31/A2TZsgAwAmASEEYHvw3iu4RoihuHrogeYzoQxI3WdAbBTSs3UNBNkQmBWFVCuX3DhkSAIgemQSbjN6gpEQAf2IYqmtxIiM5eknQFwHMc1BoDAO0xo2ep0td5hgOZomJfn2HaANt+cOolGmdARx3pSENfkx0FABoFRlJratSVfHlrSqf0Ji9hg9M2sJdgg+YSjZVock1nHANMNuqjSpjq2rtsGAAVh85xQNtTmyI6ChUB/CLpjXRZAbvadtblCDEqj6Jr4bJheqmBjTRi4Z2y4KdZJHZuksNDZLriEVKlwGsTHuGVXzFiraHGI7KoAmOI6wxIaq48jIkDoObKwyA6AGquPIy6sKq9a5i2bWX+n+M63KAmpuNCADd4QY3jytGrXJDHUrN6CUqaMvqwNnW9Z43F7NBGm1BprH6JAWrqG8slqZTl1NcSH7zgN3WdQdMktsIN6g1jBV9VglUmOgq6LHd2PWyMM8Kaoi3Oif/0UEGbnM2UOj2FrNTAUhOF0ePYctizyhvnHFpfvWxy42BEp5AuG0ROXIwxG6thIx8mXTRqVTXGWW21AaNAFUaPwx1dW9843Hm+JcIqNUuP4yPNP17O0uO8uWYcrOrCS+OAuhqdtsJzeqKlNwRJjXEDpuO+SS+NI/NK77hNE6dX7FUl+E0O31w0IB9UWeKzXdQbTeV+BQPUxSsfXOplPqfZzHYhSOrozWvlkBfP3z547PRRp6XA12LYq44s/sAItFPhH881Gx5Tiel5e4PHVOb72bo3eT2Q+MPo2WVrPpzfkRNB2kuVK+ghz/PyGbycLTxfZJsMr5+L6VaE5C4Mb1L6ygbr5445xf1sh2fc4S+L6q76zg+Rb4rjj/++eX65PjzcPpnu/5+/keKn2/fV9PEf);lineShape=1;" vertex="1" parent="1">
                    <mxGeometry x="370.7388045080388" y="401.7427560867343" width="394.2661690145228" height="12.601862927580214" as="geometry"/>
                </mxCell>
                <mxCell id="53" value="" style="shape=stencil(lVlJchs5EHwNrxXYl7OXfzjC8ogxsuSQ5Vl+P4lhoNWoYifNG9VCNmrNWvoUP/x8/PLj4RTcz7fXlz8f/j5/fXs8xY+nEM7Pjw+v5zf8OsVPp/jh28vrwx+vL7+ev17+/vFlnBy/vr/8Nd7wzwXnxdcBCu7fy4PYJef/n3y+nH86P+/OO6llPZ/FNXa+rO/vEv3xcS8lq+OBSBOk+eW4j+LK8fkkaZXG16n/1fNFSz/0J+JDuVX8EKUlom6QtCrwfuV1QJaaVvs7an8PAyqHwQjMpEFq0xHRyQ2QOKxKpyyd3dC1VbOX6o4BEU5drZSLdGLWWCSGBVDC9Mx1AERazVqqpEgCKUhfRapeMou8It6tgCSZhFKC41aRaqGxmoOEvgKqBAbIEuIKaOKJWXMTlzSgE8cVp81a+7zzOiBOAXaAyBI0S3EawBxXoEM1AOK46iTbG4hIFaQUDIAkEAKh3wcoUq0ODNBmyu8ArhMAUt6ERiZmbd5Ea5VGRGpISBWtYD6SDy1Ov26ALJ7kdEtGaZAxidaWZ0JugDB55DqgSFZ+QHlgItXJERvNILxJ8DXjOPAS49bWdU6XMuP3CNAV8yWpROluchrc2ogO3Utbdcg8p3ucFW1P9yT4AFBFEdTWmQ4IjTWnM3KQiYTQUDfEqdV1QJmksgM4wq194+oNwEsWAF3dgCrKrNR1rwGRMlMaRTEas7Lup+t2DAUgEBLoNvgKrQ/eodtRbBxpzRpXrDzTbsu03oA0v6F1VT0rp42+ddgbIE9fHgHi6gg4n/VwAKhmA/FYmEhN2mol5BRrZwCoq0igqkJ4BoCyFjlUgMBvyKpAgO9JzbI3FN7OWB2K50nddGgMYuIZ5FXKpdnKHnra8ExkZu26ouCGxqzU9QCHrq5w2lBKo0B4roPKuFEV2YhyJakrJ3zDGyj2rLRbZhpljJtJBRNqBpuCBruqlAOjczOpyRsA1s/cDzAVYujAzGpqEACUyUyVA20UltTZUF+cvj+s1KunQa50Ao96fMUTaiX8O2oA24Cgn1GjH4RkgxlCrarQyLTKNZNBALAWq5khH55hRW70le0uQNVsPHxPyBVFs5gSxGbFZloshGNjA4FZ5oCfE8npMUFkDaC9cTA53SQyK3m9ChkiEU9XQ2TIckeCz05yg6mIleysuKPb3xxHbyLMxHsTYYbqWwg7t7/Xmd/cDAwASSK7exgAYlq73RjFlYTH2J9EDWC7h7GhUVWoUfYbOyCV10giwk3JzItIU1ZJU9HDGbjJE6VTmHuAHYMH4rixi1MNeKN0GYtefCHT2eIrhlnKd9sNR24IZhKqkfZxYyeqelEQKFuiBj3CYqpm86I3jsvoBkitHpvjVaQx/rG2zGxoMGCy3b2ZUrKjKhSdPgjGG8v79f2p0a2XMek4T97vdQHCeU9SwZn3b8v5g/Oqy42JJoLT+nKGNF9yAh0EvN5dtemOg+NlDQbvZkdwcF61YT7O8Dg4r5ZEvtAG3euBdZiLRbNu2kY43fX+Rre+fn7n2Zwb6LTqr3xHYyO9n331dr5xftCNNmi1UfunlR2So99kvOZcnGd9yL3fGW+fx4/3j5rfzk9Pl2+i+//rj6B4dPmAGj/9Bw==);lineShape=1;" vertex="1" parent="1">
                    <mxGeometry x="383.7893768111535" y="436.39699387187693" width="380.05880458573165" height="12.186520310302285" as="geometry"/>
                </mxCell>
                <mxCell id="54" value="" style="shape=stencil(lVnJctswDP0aXzFcQeLc5T8606TxNE06abr9fcF6qJiA/ZTcbAlPwvoAQof87sfdp+83hxR+PD89fr35ffz8fHfI7w8pHR/ubp6Oz/rrkD8c8rvbx6ebL0+PPx8+n/5//zQkx69vj7/GE/6ccIFKGKAU/p4uJIrt/4WPJ/H748OZeKRYF/FIuSDxHhfxQLVeF09UmxEP4bp4pir26em6eCFJxtQElGGrTKYGlOnEq6mVGDw9BpL18Z0CcrwauwYqRgoRAHhatwEKFfQGocgrQK90EK1Eoa8OLTObLgMqhVWlHKgLAHSKq1NzI0EZofmZF0BRlYCXcqG4JkUNlEHcVIG4Jl2tMC9KmAU1Aaw1B2qmZGsDZ+oMAExxTQ1myiBwpZOsgeNGBRhdI7VkASgOtUxa2AB9KnkZwCTsAMCGKrYeFJBA9XNyXlIAiAMXYrEAQYTR5vMmoGkugeRjobZGuiklgXrQ24Z+W6EKbBi31wJq6migkt5uxoY+ieoyoFNfbeiY4/V2WyPd42TaywDXFRSAqLVr8jmVOAMAUxBrdANx6I16dW4FJdpl+mQD1Ek8FwESLc20TAwiLcmWqCYL8pI45hvJB7wk1dZ0izP2lwHKQmwBaFoQx61aQAWQgLg4aEklQDPSbcUpVaJsFaG8soaGEkVaAYbuNVlQTSvAdNGe5yhxFWDiIJBmBsCxRkdxEEuVGgcGJSqb18/6A8wlcf2hwElAAcWQcd4DsHtDxio10xQZjsIKEGO0wA40AGtqaE1HOCNu8++GaFRx9pnOrlwpqIKcEb3CJjfctAZCCyJglXjNPgmwo4jr7EqGFRW1SyZ9Q8VGp7Ur9r5XQWYO7dth4pUlN9oeVskWtbLnzhvWSCt9o8OSJ6Yx/+wUtSm5ShVXUHElt5Ma5gA3ANhoM52oSmi8fzugWxaQHZXanM03QIbj/Why5g3aulEcXBvVeoBs7Bq14PnHjwJ7BZRsG1WVYPJFW3GCeWkMTN25FU1YGoc1vYcb0HmdndFtHryujpXGrR3b4AbXM0K/OhsbrhTIM2P6TlYn1BbHfO+sRtSno4JpvOpXtDYZZxSTGwmqNE5BJjcCHHVfZosz+maQG/4kp9mCcsOfFTVbGB1fXc9SAKqgcd6tDoCO4C77FIDWOf7MroC0sxUwk2uF831hN7kWyGRjs2G8lGALGrsTdxpFq5CxnXGjLhqxcplbt7Ou2BEgWqM1WdA4M/Z6K31XHOmxJVvroegItbOHW72kjkZ7uLHXWwsod9izxi5xzaWxN0NvyDM3N0Ccoby6Dl0DlzCRdTs6pAZt5jk3b/I8ufbasjja5wcQhGy5XuU74FXXG1SeAdO7TfrQ5y2L+oSr338HqHAluG22zuQjsDfYAUA9jOVNig6PAf8EW8fDIiy/ZnRsJCBB3Uks1mnRK+UTHDydPrjmnbkN7j2cNyssXxesPNeIr8yFHfE3fXLaFdcfL1+3bo/396ePY+f37dcwvXT6kpY//AM=);lineShape=1;" vertex="1" parent="1">
                    <mxGeometry x="378.09304340519884" y="476.11874668204905" width="390.8585436769854" height="13.622969206623566" as="geometry"/>
                </mxCell>
                <mxCell id="55" value="" style="shape=stencil(nVlJbhwxDHzNXAlJ1HrO8g8DceJBHDtwnO33oTBQu1WaLie52T1ii0uRLLJP+ubb3c3X21Nw356fHj/f/jx/eL476dtTCOeHu9un87P9ddJ3J33z8fHp9tPT4/eHD5f/v970k/2vL48/+ht+XeSchNqFgvt9eRCCpMuT95fz9+eH6XxN03kfJbXj815KmM/bG/Lx+SB11sd78f74fJQI+gQJ5P1ZIrxfxafj81Vaw/OhEHu9NIcCKRKBJK6hR5UJ1MXkJJWoZDFoEIMqIRCBJFpmULhh1XWBKlVngSiB2KBBPMCuDGBdF1hUUi+JGK1VdPaSRikE2NEPn2wChdoQVRqoZG4lqRDzyKy9AHFrbOIVVXLkhmQ+AYFEwZcUA6f2hKRbyuIixqExlcxEuMGJJyplh4EzdLGMy0FingUsyYlbs1UsuEGpDTlL9rOApymaKwpYxmWiUnEjTPucJnEoYZi4KzOOCUTMOCvEDHwlYSUuoiR/SpE4508Sz95fpUD60EZSmrTZReYCJYXbYdXbHlw/70d5eDnPHFoDZrOdJ/ZWFfWoD/FnjeIgccSRNLDz4M8syvyTFsi5AZHrAhkDbI0qM40MEZA2ltskxNU6G/SdPJxwXaBJmlPfqlEmQW5uaLwJWFEmUW6GijkK0bzEbgiLgAGF4KKp5NmGGGl3bgvliYlmZkuDQe0ECuFILWMrtNbFsN220rATSCRwrQ5s7gSUGd0GcvY3EPCZAKRnLCMyRwJldmviDMME6qxSKpJZHBoShpxGSl1nem4rKVsN5p2qXzGDycpU5DrVWafGy1530xw5g1fhKkG3tScU3xbqjAKsctvPHmwwMknaswm4OSEsCT2zoWKoezEkdLULzBlk7Y4xhlUgm6NZylUMXPa0H5pAmxMiRUqTulvnBmF8VJnRbaTwLkcZienQAIEy6OUh+OZ8SIZWDg0YV1PiXjKozQJGLwux4VqOekp8+hVArNoYkg8FZrhaZ2WNt7tpvsF6BhuiTQD4ai/Q/AbkAo7Tn/+QMBUcKhWZUmWk2CbA6YP9DJy4d2+mUhoUbIuE8XoG2Ig03QoHGyo7G4BYK+0RpnGebTDiW5nRHimQlSa2AemcCQAeR5c5YmWwY7GMYNWyVhzuc6Fdy/AP0Mgbuz7iriBgcynlrmmZZiIfB+JC46zLMKMV5xnjfcoHiAC8z43Z+nBCgRVIpmucPgIBO460DKwzloaB38MhDlQyOBIv9SmxoQDjrn0MhQUFX9jZnAsLu1d2Job+MKdo3zUxlQJiKfrBWA63AYAlpbNi3zcsdLqwnUleBBqdg/rOZIZGCuLZnjXgLGcJxBbLfe8DAnksdg43S9DbK514++5qdqvdyWhf347NWDKrWBHoEwMIKEXruuGzkYDZsO4QM/dSR05GARaHvgd1qFIiN2jFtmtGM2j0Xe4SB8bi+rZ4hQaJQ99HzylqaG0kp8OikkWGUde+U4eZulCV+tYeyn0aT/7yu4D1ByqwfHmIr1Rv/LRhGrHVxvLppM/sbN+97CkKpTIBh6xYh5OvG4wsNzbKS/zox7vhIZPzbqlgiZI9h0sQQynbdLvxtWD/fqoPJGbiiyKHtSV52v4dkttYKZPcknaHH7ZRXgall08uf3deC51iFn2s8zM8O2wHoVHWuS3+dttJhv8lXpYRjBH++6fY187bHy/ffT+e7+8vn433v+N3Ynt0+cas7/4A);lineShape=1;" vertex="1" parent="1">
                    <mxGeometry x="380.83238174722055" y="513.8638713405987" width="398.71266279246447" height="8.871748064723306" as="geometry"/>
                </mxCell>
                <mxCell id="58" value="" style="shape=stencil(lVrZctw2EPyafZ3CfTw7zn+4ynKkimK5ZDnH36eRLTCLJtlrva0oDIG5enoGvMQP3x8/fXu4BPf97fXl94e/nj6/PV7iL5cQnr4+Prw+veHXJX68xA9fXl4ffnt9+fH18/Xvb5/GyvHrj5c/xxv+vsolZ64OqeD+uT5xVtt/D369rn9++nq7Plhd13srWawvFvKyHi8IYn2znpb10Vo5X5+d+XV9tijOn735sKwvltX7gzW3rK/WvVifrazru3l3vr44a6t9vLOkBJq5VQHvLQsP1GqRBIJUoWVrfRVI0qatW6EdsqV+LtC91bgKFGtVCESOUt/kkSAQ17DwXSrdYZO2xqm3oI7k2XGI7Cgiu8Ovqw4I7SI8PQRWs4ZkRTluU3ETgCuTEGgWSGkEizgSQsORQDendoBN1iNFZ12YtW3/3gSCuSgFPO0QZ4of50O3TALJgjArBNwarREYI45Um5XVSrFYElaCAIVGrPOQZzlNKRqbZZEPtVhdYSkiadWR8oz+KYBKUURO1zjrxibgJdLXsNshTFg4Rr4+37cJJHkkQGVdrZTyNMOxALB99TTKl9JhCJAO8L3WgYIPBSyK+lO9pfVIqGBd6FATK52jBZ1AcQ2NDLOKI7XCOZ3xRMF9ME86NJlAPbFZc5dW6pWhEnU1qR0605LiZcZ5B6K0mqkEicbYoq0lqADvVUVpXFFKktEHrTNpjfgWST3K6JqjCGCVEHB1pyN1S6oE+WmTjS45WYKAZGG10sAFhWSRCzWeNIUzfqL7JpAtK9joTJhwSAXfA2dIhz61OhMoa0LAbqqMDoF1h7bx0lOWuDquIZaE40rh8G53oC9ZJoGq4dsz9A3eKAQAElSzwLmi4t6IpdVxQB6FZEOgrAJRKg2BspoVUKUyDjq41XE9T3w+E4h0pKIbjsZceuCIOlJlajzAUO0QJ1jfCGSxQ6pMyQYWimgFF9nv0IXjQCLb6ukbfD6UADlPebeFcDVamL0SKr777CNv1kvUmDXzZr1TkcHcBH5Wsdp2ydBkDfWRaW7fQORYoHO9QkFSSBx2bKnr8gPanNN7BNLGXH7ySCBTqb1HaVCdsBNQZkV+5soCEmPaQeDJwEi7yNCRl/pB6KnQBjFnFNPJgxaMOqC7+Yl026WPggBfD5RQIOO9+coCCsbqwYkkTnIDdA+I371+nz1JVWjm9agkUYR22eVOniT5J+2TJuScrOcwRaMu3t950jhGLoIZ+rAzqJMKA+LbKtCaHAb6xoQbJKkoxEPQE+fRvVXYNWN3iF7YVLylkiKXw26qNMiqFqA+ZkwUhVlHqV0dDcKdhOMQ2TTdA6VXzBC1jUIJJL+LHWIyv4IF2pKsConjPqZ0adZUJlrdtFZJFRLPXTSaN0mHI3t69JN6dJ1oBz9h+WyWThMZdNFyuF+5emZN6ZPnfBiMWgjAcRR8GUmrQqOzp1EeZXhnpj2wm6L0ITIIwJWq20M+UKeEAqyGdcGz0jC0mhxgB+J6CEflOOhA3V7KGsjinM/fzt4ULhXu9kAipEDlvh7Botp0eDqSgJNmjbucRt+hbk6iZ0o/pqzC0xBoJKDnuNG/c1IMgUiTYj2LhgBdF41pt+LcjqesIHOKfkKASDr2vNe80TzdzXH2mQ40wQlb63EsELiwo2Io9jlssqIG4lehN6zORwKBVcGXua8PSTYaCASiewNHlJV2TfS4wdJdd6FLtT7r6rFA4xQFIVL3fIh+RzeJdRaAMyvR7azX45KR06RDkgk0jLj6wevwxvvoghmNhJqk7XDMuzlwOaH1PI7RCc3lSkf2rnMrmlmx/fVtetzdvcm7iWCdskwu9/N2Z7OkzPrdgN5JTuh4Qupmv3FyGBoVOtkqRA4zN4H7pPeieZaTrZTffTXg5FcG4z7e03qnyr3jqfzd7t2xurIJ2QjQzfkVLsRZqG/so5Kk8ETeyRuqgWz8fkUl3v3VzN31+PH/Jzpfnp6fr1/43P6fP+nBo+vnQPHjvw==);lineShape=1;" vertex="1" parent="1">
                    <mxGeometry x="476.813610001725" y="300.4669592492728" width="10.913639328726731" height="249.45673595164294" as="geometry"/>
                </mxCell>
                <mxCell id="61" value="" style="shape=stencil(7VrLbhw3EPyavRLTfPPsOP9hwHIkRJEMWXn9fYrZcDwsjmqhYwDf5HX3kOxHdXWTl/Dh2/2nr3cXv317fXn+9e7Ph8+v95fw08X7h6f7u5eHV/x1CR8v4cOX55e7X16ef3/6fP33109dsv/12/Mf/Qt/XfVCc9l3Lb/9ff3F3Jb//eHnq/zjw9NBPpqLs/zmcpLypbB8FPLBmZF8VN9PzvN+fBXyxTXej4n9JFu/v4n9pOhKZvlNyFcX2jvks7m2sbzwV05u4++bki+rv4LaT3OFvx/L2/IF4bXEj5aPfN4q/Fs21+b4sWGAc/nM8t6lIOXrfN7gqoiHEl2skzwC1uR5U5rks0te2L9yPMCBWt5m+zdnwp6Q93M8GwJCHDgvAW3msjgxIiiSgndNucA4xSy6oGwKk882siSdXBHDFERwu1ihwklz1liVVmp+ZPmu0OShW2bcRWCrRGtt4NSuECSyQKHSCjCrWMG2jQ+B4FbBhyU42Yrz+hCeDoFjKYXCrg4aL1p0NcwKXhY0eI4KVIjDNeex0ZYtZQnZtYx82RWQ0ypcC/sBVT2JooZwzTMoRaCwiA0olHlLqOsKtusCk9G7IvyAM9ic1GACTaVcYdgAFVCVGQrk6ZiHZ95SKGQlrKnMWlygFeotKxGSRSShUkisAH5iykqRgSl5F1TwhVGedoUwguVcATBEW9J+KIhNqohZmrXA6rNZE1wpHNfxfkaN1DQJ8FyzMoqc2BJq1n//vSvYCMdzhcw0MvthhnMFpMuc0znIFMURI21p9/25QmAmhk1GRf0rA1knB4prp7HjnZuAfAogiyg485ZQ65vAVmBEnaO1BEmXsEKerYRgUVURKU/8GQxQeTpt7LhSh6HPFRIzsp4hagUwtjmnkYOmgs9GVd4VvKZkYRSoXSHIKopQo/AGUsk2IzF6Vw0CiE0C414m1ZbKwLldoY4C8NYKcUYNVG5F+pCiYfZ0Q/MhttR7vRnIOg0UKyBF02ylFmQ3huCjbgD8RikgvNOcQA3UWIFAdG22EpipIiedWcyh8Z2ZniqEOsj8QSEKK4F/WWCFIg7t62D/BwXFNdATbnPwHbjvOTdOg5wfl1DElStQ08EXT76v/LaMMTq1Fqi0UPtWZZ+7DZw+yKv2JDA/hLwqDZU5MZh+VeeNwxwHhSxAEhayuCgIRELrkhMrFBWngbtKKDQRRKD9dTGqAnrkWlwUVCMAhRZYQRVcNBaMeYgjsaWQuBxCQdUe9GtpiVQVeUgFX1lBwbCtjoOCOIPZCSKpcphci8uZ1RGYY7Qm6efGBKB7TSQbyGxlecUw3isfFpcV2eGm0RUdik5VjdXisKjBzngo2eumGmUk7j5RmdX8pk+ZKSR0I+YzNzGdXSh4qUyeq0bgXtVIQbdJADAaNfYxllohcykHy/PCD35364FHNnXoNIaRB6aqxgYIPU880uR9gTWOPbBthXi9ks+OA58PSsFzX4WOQVWexoyqJNmttuHVQ88TFd7ZGJkduirFhPv8dfZCvoGokakzFCQ9yuy2rJskQCRBHuj6pgLjrB1W0x5UZ+5u8YuIVVRn7p+9HGb26kxmBStT1Dm4QmfYJMjEzJiBlkNNlft8avZDQnFUyL2cIeXR1JwrLMP6tHcQ5wp+TMCOAyjV8wTOaHxCjSXSwp2xyU3dAS4detTYDQVi87FKAgAFuuXqo0blhzgIyHGYqRVobB1xKm3WMOd0H8iqFTzP9aKXMAOrV1rBZN/W72KXsbWclCzI1wfjekthGb1npeC54QbhVRNceJo4fYiyEUMG++WCIqkb2W30CLvCNnDkrfEQgUC/ZBFbysYZd+MaBwppBrJ+UaRmMcZjid7w6mtxSlEwA1N+qBx8aAAVW0pLQ+n1jBgYYfMKViVq9HShi9AiVwjLZRfIioL7sMyTTM+IgzFqWJD3b2GZG9y4/Q0bM2/TZoUCTQ6bfMARlvsJMA1lo2WUmUfGvtmk8wW/Mikwjq4O9OU1UDfP+w/ywh7y2/x9gOqPBzrHPP7xQOd/9EAH+6f6Z5LH5+XW9ubNHD8/0fcKS69jsi3vly+8nxuXBDTs8BJxQSjIPl72CGm5DNLysfKdnNcPBNPomg7nVfKez6ub07jcr5nsWDrj43iTg+nGc2CT3Oa9Dyhvy+OP7681vzw8Pl4fex7/n1934qfry9Dw8R8=);lineShape=1;" vertex="1" parent="1">
                    <mxGeometry x="633.7378940883968" y="301.3964547786127" width="14.76452316928362" height="255.78948617024434" as="geometry"/>
                </mxCell>
                <mxCell id="69" value="" style="shape=stencil(lVfZbhsxDPyafSVI3XpO0/8IEKc26saB415/X24NbZe0d4q87cGReAxH1BQf3vdPb7sp8PvlfPq6+3l4vuyn+GkK4fC6350PF32a4uMUH15O592X8+n76/P1/e1ptpyfvp1+zCv8uuKYappBgX9fP7REtf/98vlqfzy8ruwjpWrsayYu2/aVxK5fCjWwvgjlZgFMHAGgEmcDyJEC2GEOQQwgFRKwQxSKbACxUhUA6NRt0KFRb9uA1Ei6BcjI211AzmO9AZBEBQRdIokFdGoV2OvvYstAGeRIWdDs+oky8KcJhWhzSgHQqCnLLO8CpQzsKzW7vsB4u1Avzp5BAXqjaEnEJMAftXeUUFIh++77LML8q72Lt4wF7ncNa1dZUi8V39qg2zaTSBFlqFNxFFUK4R0cJaSToJo1KtYlLUJnAKi+a7QKGe1QfZXnvgSd38sQhlUMMOhyE7QqJopBOz/4OnQUQ77pBKaMYsi+FVRhgXjNIVjxSlCw5xxZe4HSpUVIvtWQvistuDl7Rhlt/gjkkbEtnnpSwNNA7astQKYUcKfZ1lcHkf9q7/IZKGCAL0CmjFs5Wa0QlT9cgnbTmQnltFG4aTSkX0qKHD0AuvRhgAwtWcVQ0RGlQ0H1WUKjznymOYWskHl6aMbiAQKoVIufjdQl1PuVxyS0ChoBdK7IbtSJ46S7P7mUQYTVbNTwbOQkNWZ4FKbF40WPIhQYne+6a9AAhwUVOLEaXAQPtXX8XgD4tNUOLjaGWqEIND8u6BgvIKvZa1hneLAt09Ziv6jmhr249XUcAP6L18jVgLIBiMlv0AEr2IvqLOMgQUwl+YCRXLBvTRUcBgnVdDt7LQn0n22Cul5jQAFuxzsVVMA4Hre4hUAq+jBeJ9gqfwUMtDy8XewLvDd+9F76f3t9+HcJfjkcj9c79Pq/vzTrp+uFOz7+AQ==);lineShape=1;" vertex="1" parent="1">
                    <mxGeometry x="246.82513156590494" y="346.57147991891907" width="94.46190904567084" height="18.26595186474742" as="geometry"/>
                </mxCell>
                <mxCell id="70" value="" style="shape=stencil(lVbLchtBCPyavVIwzIuz4/yHqyxHqiiWS5bz+Puw2RppZyR1yrfVil6ggYZJH963T2+bKfD76Xj4vvm1ez5tJ/0yhbB73W6Ou5M/Tfo46cPL4bj5djx8vD4vv9+eZsv56cfh5/yF3wtOCmmcUYH/LG+YYvj34utiv9+9ruxDJZPOPlAB9ilRsc5ehITvA3Kl2gckmRQATMi4j8ioJACoVHIHUCO1+wBhJu5dRKMqwAVT6LPOhSJwUSLl2gGqtMLc5lUppw5ghSTfB3jE2mdtRgxCirGRci7EhYebCKcxxNFFqQAQKfZZe20iKJ0ypQGQYdahkJUeoCTAQ8hjN1WDDe4eUj8QNTcabgP8ewNAiRFLOjZTdRpA0lqo9qUuPrUg6RjIrgBIBWIl1h7gzQQGIoUW8SqHDJJOmbiMLAWQQ6okNtYhoglyGbiqtCEp80oP7a2kCgCR6jCjLmWIJaba5+DzgCodcxvh1cRVVDgmuxpRQ82XyK48oEqrNPFdCRPjjZKHEY0UgAefuKE1XG4ryMEBEvpK+9ZDgNrU/QyIeERllJlZvjFLnwPMzTdslABpzTb2km8A1EvZWe9Dch0xMECuGqUHOG+MtJXbDjwDGCZtTarPG6jgFJpCrE6HDDLQsVUlUQBllrEtRCmBhHkUDL99UPxXZ4ZBFfYjYxBhqJBCoZ+C1BTzdrXGQ0/xQUKhj93JAtpY2kK6nJ0FmDtxLIM9uiLlLCEXe3S6fPYM/r+9P1xu7pfdfr+c7Ov/xxvdXy33vT7+BQ==);lineShape=1;" vertex="1" parent="1">
                    <mxGeometry x="328.1168723981259" y="334.45346377179" width="16.734925780279355" height="24.626569832467567" as="geometry"/>
                </mxCell>
                <mxCell id="85" value="" style="shape=stencil(lVjbUhsxDP2avGpsy7bsZ0r/gxlCyZQSJtDb31fbjJeVnByGt2TXZ3WXjrzjm9fHu5f9LoXXt9Px+/734f7tccdfdikdnh/3p8Ob/trx7Y5vHo6n/bfT8efz/fn/y91ycvn14/hr+cKfMy4RpwWUwt/zg0Ax/H/w9Xz86fC8OZ6pszkeKdbrx8V/PVHN1493KtEcz1TS9eMxUinmfCWJ4DxTyeZ8pwjUiYWq1UclSgMAoVYtIFMFAPV26hYgJAIAaSiwejRQQxKKl5CYWgcAVcABKrSBwxTkThmEjRN16yV9EhGgULNx0ycBBJob9WABjQLI05woWKOzJjaIQ57cmjMlYENuU24LJb4OKJGataEEKKFMKhUmBl4q6iXr1lKJgZdqomIDVzolIKEW6jZbaxzZdRmgBWn7S1W3ogaTRgWvgAoLSMoEUBsQoI0ONwCyRuYioEUKVoJk2CQbj/paAXWE8jJA3SoWoEoiwFqQA9C0awCj+5R8LVEqAJApW6PVqgbSuwsFG+lWKSOVOolt9voJQSr1kf0roFEDBaSvXRz0EwW4VRVwBaSAjmyQ0VS2ADQQq3erAjJSaWqVi1VIpUKZvVsLyFYFJCcBZ6sC2OaSJksHA0UB1QEY1rQqEG169wRLVAFuxikgolwSzzS0QjqS0Kbk0xGD0zsED6g4vb1KSm+QW/uY+5s4CIh0DGHSqcIxuoiwvVIdx9iI7Equ4fyeJvtS5siva2fcABD/UY1dQWz8cC2b5r5RkQj1YvJWf1ARnrjK4FBXi9Q1Gk151I7LaO8rQBsDGO3La2c0nnKfB2TPvjXBM4pD8hSrhyHzMkCZq82N1mCjaTIKZjO0BPTvlkf6b8ZiQYDk2YbSCVQQ0kfRr1wAczLlFmIrSLANwmOp2vIZUNQSSGx6y7qoXWZ9ujZZCbXBOVqzj0NdB+VlQCR2rI8hFygyFtUNcw1AgnLtZitO6TVaahY2bwOnBB7VQ67UrVtLGqP4MkB5pfVS7mNVuwyY6kFlMkg+Fj94VWYGbYbZLwQqE634HMeit25yAnf81Ma+sAIyzCVdkF331m00AZV0fw5Wgu67aG1KwXc+3ajRzIriI60yUeBi8YFbLhaQBPaBU5mo3cfoF+SY4San9eMEhNGdr1wsOaqh+oCWEYe27zc/DEZDoN7d8QD8GbzyBTKr6QKkQL4QKPpbLhTciYTpBAGhnY5jKjwpozQV+H0yNcJMnhwZoDLR6x5gYUW/1YaRpFeOuw6Nad0nb0Y/PK4/3i9hHw5PT+c73O17f2mrj84Xvnz7Dw==);lineShape=1;" vertex="1" parent="1">
                    <mxGeometry x="249.6041445842584" y="391.92315534042314" width="110.5580351608919" height="64.98344943378379" as="geometry"/>
                </mxCell>
                <mxCell id="86" value="" style="shape=stencil(hVfLctswDPwaXTEEwec5Tf8jM3FqT9044zh9/H2hasiIkLW9yTSWJLDAApzk4f349HaYvHu/XS/fD79Oz7fjJF8m70+vx8P1dNOvSR4neXi5XA/frpeP1+fl99vTbDl//bj8nHf4veA4Uw4zyrs/y4qjmv8tfF3sz6fXlb1P5NnYO7dvHxIlGeyFMrBPQpIHew5Uyj4gO/JxAHimBADFU6rjjSLFtA+oTHV0IVRKDACJ8hij5Cj5fQC7HsSGyExewBGZyggoTByA18nGtWKiUyUew6RnOhDX6CiPRNRKNe4DRHkafVjF4X6cxHKtd6qAiWKTT+0ZEBEomf0jBeACUzb7C4yR28S0Z++e/UhayeQBaT3zu32gANIoUDT7e3LgPoXi6G9xJKB0lDAe1SVXiiig2daaApBeeE9S7ZUKAqTm4crnDHJidnr0oUTygGSvLporlcb7HsCZtNBiBmH1eQMQKJIqumVUJNUoh4hTH8ZM0soJKPNUpbeliU5wrRLXJ4AoRSrZusCI6CbqqxhVoJDO0lyxBG8kW1n2yGFyIwWaRgLuIy3e6zwFDKiymf21EMD9mW2A5lJDXUpbSLSACDyYAdvqRy6LTSLtahnoe9TWXC1AQBKlZHtOLrAQsqbRGFYdOBLwIfXZoAFibZe8Dwg28XS8YKCRUUttJE4S7FJBWtPoI1IgD3xQQeLNEIZye5vcsx4A4riQbAGoeiKlZAFILuZZYewkupJR6+ma2wG+nXl/BrPNU3cQIEildb4uMG162DFnUwvkQPkXCmbmhIVQbfwDZRRN1/7+HOMFNBzuWtVTDoqp0suGrebP3pxghk08zf7/maMfn2+kl9P5vDyx1v/bN5UuLe8xefwL);lineShape=1;" vertex="1" parent="1">
                    <mxGeometry x="343.8700644745495" y="430.8528876080725" width="19.591902209483123" height="31.43880136801522" as="geometry"/>
                </mxCell>
                <mxCell id="88" value="" style="shape=stencil(lVbZUsMwDPyavO7YsuXjmeM/mKHQDKVlSrn+HplMS+U0YnhLnJWtlXYVD+HqdX33shrIvR72u6fVx3h/WA/heiAat+vVfjzI0xBuhnD1sNuvHve7t+399P5y15Dt6Xn33nb4nOIcnGtB5L6mhejA+WfldsJvxu0ZnsBR4SkjuWV8RckK7xm1GPt7kD4gocZlfGBE1gcg0jKePZxX+FMFLuJTQtB4QgnL+FyRSeErkl/GFylQ0vlLgHFAZSRNOHgUo0I1gbsWR1SjxZV6ypzNlEoAa86pgA3SWZqgOeSEaKTECaRTKg7JCGgqTrOAZOiO+761lIwAH0DpP6TjkeF5VQ2lOlCZtc1KCF4bp+nC6Jr4KsyEZ+TjM5wmUE3nB4dYe+cY+0fpgCb8hzM9wn+cn7mXhFSADVXLZ62INrqq4ZsI0gm12WgoQpzZMW6yNYbj5QDLyjJddA/YIRukvZv9EKTOZB2R4bU1xd3RKpP0Teck1ixWIwK8Zl3KsQ6XO03HX8ZJqdGU3i/FU0BBMmZqLLOp7Wy1Bpkmvj/CsqfMi9TlxPBGXX1E0J2TfwsZAdzru9iNmylD6kyqqvLwe894GDeb6Zpy/r2/l8jSdKcJN98=);lineShape=1;" vertex="1" parent="1">
                    <mxGeometry x="251.0318994677682" y="407.9348939944873" width="4.0669941408928025" height="4.843861548085897" as="geometry"/>
                </mxCell>
                <mxCell id="89" value="" style="shape=stencil(lVbJcsIwDP2aXDW2ZFv2mdL/YAYomVJggG5/X6WZBGSIaG9Z3rOWp8UNzU6bxWHVoDudj/vX1We7PG8aemoQ291mdWzP8tTQvKHZen9cvRz377tl/35YdMju6W3/0Z3w1fNiASodC913/6VkcPT75bknbNvdFQE9FFaETEA4TfAIHBWBE+Q8TYgQk8InwbNhALzGxwBkRODAOYUPDqLhDwJ6hUcGl6bxDFHH6yN443z5HXRGE/hi+CPHBW3AVIwkoRrvAMM0PsQhHQOeoDhDrwBI2h8PyaiI5GqFJcfJGwRxQEsgMfEDgtYglEGVKZeSJiRxySi6rsa0aEymS5JVrvrGQzQIXYhathwBjRikLkjrkMOg/FThJW2BCwSzspMuDHamAekcjY8Z2Kgk6UwtsyQNDbx0flUWHoLhjzRa1ZnZnixSA3pUCN7wRxxiPUzHDNyXGIdBculMZ5wfECjW5z/AhwpvTRbOUFDj7VGRbyoIAwQj4iICVZI5YGNWlDjsipGQzeFSRonGImKzMb27WQiRh4l834R0iSYkNldgkYVxswKtRigErhoWcTjivhBjjOMa9+bQluGD2kKRLWtY4ABe14akIRkWZGtX0+Iq0/fb8793kT8Q5OFy9Vm3221/c7r+X1+V5FN/zaL5Dw==);lineShape=1;" vertex="1" parent="1">
                    <mxGeometry x="248.70092460845535" y="407.8983912841202" width="6.21667580861822" height="4.681378528851383" as="geometry"/>
                </mxCell>
                <mxCell id="90" value="" style="shape=stencil(lVhJchsxDHyNriiCO86O8w9XWY5VcSyXrGy/DyYqMgLG045voxF6SDS2Jnfp5vXx7mW/i+H1fDp+3f883J8fd+nTLsbD8+P+dDjr0y7d7tLNw/G0/3I6fn++v/x+uVssl6dvxx/LF35dcIEkL6AYfl9edKFc/775fLF/Ojxf2WcqYu0ztG/j32kfqMq2PeuG7AKtUkeAQqFbQKQeAEDGBgagdsoAoD63YAGJegMAIYkGUJTUvA1I6oONQimUwAo5ULBbKkwNsJQz1WIAuVPpANAH6xNQIEslUmMLiDAzSiW2W0rKWwIAoWhXSI0qbwNqpJAsAPtQlSUHSMRohUbBRjoFaoDWxhSt07FSQ/WTSWx6x0QVpEbrxLbitMZ72QZoQXZLK2s9AB+6bsAmH89Nvg3QSDcL4PGJtwGdqqVV6wf4LMqqJamSAJclU3Jhgw5I9VFjYpCp0nw9B5hGat+bt4/AXvmpfj9o/7L2lxGfMpJ4thfY8Dis+pFQQA7LiM90IFIEZaCAahnVvh+xy+yStFFDOdEpWZ91UGQctGKDplELoAdrFrXsV2gozMXXvlZmAnNEAd6HirdUfNw4UQSVqZXjMlXGvN5cwDaXCvujzAZ9VZkoCNV/XzsLruTmKy3hSnZ6Z2b6VhZldvYwxDIKfSYRTjpZzXHMj4bHdoo2BN//VrL2akYRFs8oz+662YxWlQmbRfdTWctAULP4MECzzgI07TJqFholmxaa1wx4VVXt8iiq/gJb0pnpAKoskNhRHe7FToKp1NmnkqqjAgCqLFw7Uv3FoBhaGUrlSuGhuabqyGVr5qFmtvSXa6k5QQ1Zi5/kKmvReUQ1ZHErtNFkt1RqtSwtUhoB6hDic9gGqHZK8nJKtXdE4l/G1JgAPdIAlvLqTFUaVKl6HsmW1sowNZZUcwCdLOiIFIYmnQCBFaeSJdl6aJoa6JgX/Ohp/b2TZ7c+qDIWJJPmGW0COox09y6o0EXTVkl1KiyPk+jbGxqUT3uBecGjP8y+GvA4nLL0agHUiINndJl34Pth9NBpjxt98DpY7QO0Z0dQfef7rgfrZEHjfy2bM2Vs7/hJsKGGFf8M5ULw+lE0ItBfp8plMrBh/7Hbpvft9eHf1dbD4enpcjN2/b+/CtNXl2u0dPsH);lineShape=1;" vertex="1" parent="1">
                    <mxGeometry x="244.81745034973164" y="388.2355996358749" width="109.26173394322905" height="27.94191094157827" as="geometry"/>
                </mxCell>
                <mxCell id="91" value="" style="shape=stencil(fZbdcgIhDIWfZm8zQAg/17Z9j85U606tdqz9e/tmZ0c0uJ47xP0I5JwEBl59bp8/1kNwn6fj4W39M76ctgM/DCGM++36OJ50NPDjwKvN4bh+PR6+9i/z74/n6ctp9H74nlb4nbmSKZeJCu5vngmZ6jzzNAO7cX8FVKEsBuBKrgKg9oAE8gkCbLeUhEoEQKSUDZDLeWYRKIl8MEDRmHwfyBrBG6Amyu4+kDxxMoB3jhwgYu7TVAsVkFcWCs4CTBEoF4RctKeOxHIf8IXYpikHikAIf+MNUW94AGSSaoAoFIE3AlOyeWU+p2E5S9yfQZcQILVuQOwZdJNoS9Ls3wA5u2XZTIHECqeJ9kDpSaauRiNVcAY1QhdBzeLBli5WazpkSsBLV25uRaqWRyFawTQzRRIQYirJzq5atkBqLfouwqUxLBepthWb10vrWZY6UOAeyKCCtDV625mm9gmUC4Wc3VLJMMIE1BsA2FW9JraVlQB7n3c9oMKhCLEvIM1zBPZ25/umNQ1tVEC2G+fFCC8g398O2hNQuQlVu752DBfA+q0ptnqO5JFmeuIuo9DY7KjY71UxdJV4EntifPWorW++R/dC4t7V3DlIB5cHx2bc7eb3yvX//QNFp+bHDT/+Aw==);lineShape=1;" vertex="1" parent="1">
                    <mxGeometry x="344.8679608424759" y="398.54206050539415" width="4.672539772115215" height="4.665236216357698" as="geometry"/>
                </mxCell>
                <mxCell id="92" value="" style="shape=stencil(lVfZbhsxDPyafSUkUudzmv5HgDi1UTcOHPf6+3JrKA5pa4K8rdecFY/hkFrk7nX78LJZOLyejofvm9+7x9N2kS8L8+55uznuTvq0yP0id0+H4+bb8fDz+fH8++VhtVyffhx+rV/4c8Y14ryCOPw9vwgUwv8XX8/m+93zO3MuxMXYR5I8t5dGJRl7plzm9jlQtd9P1NLcvjClauwbhT63r0Ji/YmRWp0DGlPtFpCpyxzQC4n1iDO1NgfE8JbygdCsZZDUnkksIGmaQdVaHkkfgKx1Bz5VdUAMoCSKIE01ULMu6RsBhShCgS2gUGXADKFkAS0RA4AkyrZyvVEEQQtTsL3QOyUA4E7RNUP4uH3EH1FAmlgoNx9ERj5FStYnJWRFgEDR5rUnSsClqB47lyJ10KPrCbYQTfMaYQwlWkClCBpCs1StS8p4eEK5ko1EAnRJS52CB0RwgpKJr06ogBpKVx9DGXy8DShULF2bah+og1SqNq09UMKA5tj61rUzgFMylSrEJVElc+SrUMk0rf2qRyOQY1HyJQ/oIAaunq0KQPqtEypFDwjAJR2BofugUR20gRxbNa2MW7S6tPLQ5xmgO0AgRi5Fr5Xaog01kBbuqkVhHT4LSIG6zVJlKmiiqFZbqdQh1xCg+iG3jlEwFUv221XW2qO5W3zhEo9P3J7sui/ZE1bhAZUu1Xec8jfjoIsNWunYAL2TnmBVI9YxMWZCVt1OlseWdpsa2bsUhToIuvptRu1RO2S/tKp9RiJDze2IDJdKJrHUXpdQ0Dxx7C2XPQNu0cGvoB1Okqv9s45Va2Zuo82DgxPzYpOfxtY0idVtbQzXQvbCFWGllOu2smGU+na3jMvNxTwCZz55mfrQXB8u97an3X5/vva9/9/f8/TV+Y4o9/8A);lineShape=1;" vertex="1" parent="1">
                    <mxGeometry x="338.9167546585022" y="377.24648557640535" width="26.408016761106865" height="30.23430955110598" as="geometry"/>
                </mxCell>
                <mxCell id="98" value="" style="shape=stencil(fZbdcgIhDIWfZm8zQAg/17Z9j85U606tdqz9e/tmZ0c0uJ47xP0I5JwEBl59bp8/1kNwn6fj4W39M76ctgM/DCGM++36OJ50NPDjwKvN4bh+PR6+9i/z74/n6ctp9H74nlb4nbmSKZeJCu5vngmZ6jzzNAO7cX8FVKEsBuBKrgKg9oAE8gkCbLeUhEoEQKSUDZDLeWYRKIl8MEDRmHwfyBrBG6Amyu4+kDxxMoB3jhwgYu7TVAsVkFcWCs4CTBEoF4RctKeOxHIf8IXYpikHikAIf+MNUW94AGSSaoAoFIE3AlOyeWU+p2E5S9yfQZcQILVuQOwZdJNoS9Ls3wA5u2XZTIHECqeJ9kDpSaauRiNVcAY1QhdBzeLBli5WazpkSsBLV25uRaqWRyFawTQzRRIQYirJzq5atkBqLfouwqUxLBepthWb10vrWZY6UOAeyKCCtDV625mm9gmUC4Wc3VLJMMIE1BsA2FW9JraVlQB7n3c9oMKhCLEvIM1zBPZ25/umNQ1tVEC2G+fFCC8g398O2hNQuQlVu752DBfA+q0ptnqO5JFmeuIuo9DY7KjY71UxdJV4EntifPWorW++R/dC4t7V3DlIB5cHx2bc7eb3yvX//QNFp+bHDT/+Aw==);lineShape=1;" vertex="1" parent="1">
                    <mxGeometry x="252.2013348659134" y="488.5419994702379" width="4.672539772115215" height="4.665236216357698" as="geometry"/>
                </mxCell>
                <mxCell id="99" value="" style="shape=stencil(fZbdcgIhDIWfZm8zQAg/17Z9j85U606tdqz9e/tmZ0c0uJ47xP0I5JwEBl59bp8/1kNwn6fj4W39M76ctgM/DCGM++36OJ50NPDjwKvN4bh+PR6+9i/z74/n6ctp9H74nlb4nbmSKZeJCu5vngmZ6jzzNAO7cX8FVKEsBuBKrgKg9oAE8gkCbLeUhEoEQKSUDZDLeWYRKIl8MEDRmHwfyBrBG6Amyu4+kDxxMoB3jhwgYu7TVAsVkFcWCs4CTBEoF4RctKeOxHIf8IXYpikHikAIf+MNUW94AGSSaoAoFIE3AlOyeWU+p2E5S9yfQZcQILVuQOwZdJNoS9Ls3wA5u2XZTIHECqeJ9kDpSaauRiNVcAY1QhdBzeLBli5WazpkSsBLV25uRaqWRyFawTQzRRIQYirJzq5atkBqLfouwqUxLBepthWb10vrWZY6UOAeyKCCtDV625mm9gmUC4Wc3VLJMMIE1BsA2FW9JraVlQB7n3c9oMKhCLEvIM1zBPZ25/umNQ1tVEC2G+fFCC8g398O2hNQuQlVu752DBfA+q0ptnqO5JFmeuIuo9DY7KjY71UxdJV4EntifPWorW++R/dC4t7V3DlIB5cHx2bc7eb3yvX//QNFp+bHDT/+Aw==);lineShape=1;" vertex="1" parent="1">
                    <mxGeometry x="252.2013348659134" y="488.5419994702379" width="4.672539772115215" height="4.665236216357698" as="geometry"/>
                </mxCell>
                <mxCell id="101" value="" style="shape=stencil(lVdbbhsxDDyNfwlJ1PM7Te8RIE5j1I0DJ33dvrM15Jq0d4r8OQpn+RoNqY3evT0/vG43Kby9Hw9ftz93j+/PG/20SWn38rw97t7xa6P3G717Ohy3X46H7y+Pp79fHxbL5de3w4/lC79OuCBjLKAUfp8ONErJf08+n+z3uxdjH4Kxj2Oe3LRPMqqxD1LqunmRnp05+/qQ2m00EsnXY5Zis82iLPggWY19l6TEvkl08SD/sg7QLM2Vk3vISZotEFIIkRQUDbYeUDQWUunSbc5aZBBG1CrJhpSjjLQOaFecyG0GeRswPOmKUpJ2tDVZQJdGytq7511VySSHkbwHlKF3AkCnLTXqkEYaN4bkYrkX58kawHlAGSL3MJoFNFFSpQVgr88I0hoFOC6hDIFcUACKA6Cs3EO01Bho5SCA7iVgyYp1us+ILwCd9aFNhbsIqbKQoBrZJ12YB9TEeVCprEpVmmUrGqfkAi0A66FXGYxL9YpLOpVqLWl3gUDvyHJont6Qhcy41Ke2nwF9fmIN4NgKD0yMQQSNNodAZQaAOnyVIr/TI/k+JMLWGK4GdIdTxu/hBwTIRGcuvmeFCc1nIwiA5AB9Nn+tEc2SadE2FlL3I+iiDqtsSt5F5Jc0uZjAYEa/DwPilX6XKW5rQytf0Y+pK8g2bCNankpye/BCuNxYRCNIlTDaqxuLfMOq2C3sncOkZtq3/NuGVBLNAQtQtVXCtpEIACuWG7zYZzqRMixx2SatlVYpVX/lNEnhe2i0XMISx8QSi646QONC4+cuYsxEyYqXSpywbQaSYksU0QSSsXqNwV7cqX239ngJBLZ4+5uAk0LyVT/eUJ9IJEznMni2P1+lFftmSaphelyxz3Y+63mpXrGPbqkHaRlFvQLjEcDt9cqercPR1xP2lfQrSg0+/k74FucVP9vzff7jz+D/2ePHvzf3026/Pz3ZL//v3+g4Or3v9f4P);lineShape=1;" vertex="1" parent="1">
                    <mxGeometry x="249.32622855791124" y="498.7410241580933" width="100.97484742461666" height="15.596771716215926" as="geometry"/>
                </mxCell>
                <mxCell id="102" value="" style="shape=stencil(lVfZbttADPwavRK75J7PafofAeLURt04cNzr70tXWNekpCnyJsscLY/hkDvJw/v+6W03cXi/nE9fdz8Pz5f9JJ8m5sPrfnc+XPRpksdJHl5O592X8+n76/P8++3panl9+nb6cf3CrxkXKJYriMPv+QUL1fT3zefZ/nh4vbOPxNnYx0oxbttX4mjshYJsmzNTEWMfKIRte+kk9vuFetu2T41ysP4LRd4G5Eql2wSFkYJVQClUrUeaA+RSzSMjtxRlasClxsS2ZkmoAJe6jBwOQG6UgEu9U7RB1wBdiiH4I1oiBoVrhXIygJ6pA+KVSsFG3Rtxh6WW5gGCuFQo2kL0Sg0AOJNUC1A6FgCI1F33BMzvuOCrHpFBrWNeiTogAFOPvhAFBBHjiPEGuDXtBjmoWZdaJwb00xOyLUTLI3HrACG2ZGqC06od5k4IWPY6BbYd0SkhbrAvnAKQ0CiZXJYU0JFUNmq2cC1SBVmSuNKjAuog7MW7VcqAGgpwatwDbGp1ia3Q9EQRuMTda18vOEuFktOZNgi/DpAxz+46DgGUGm5kKQCKZVk0UMMdp/KefNAZsVWJ4E6QMca2WtSLQKCEgo5+Qig1AnKJB3PuWrSjLKWFakTYcbqIuBi0gSrSpY8CdEBkq/dVlx/QcUlPWALACbo8+MGr9AZBVx1pTpfS0MJ1AFOwLhWGDVS0RS29Ux/sWt+YlGo2rYmpghhSHkm8W4AqkkqVXreTJbjPLNVblzgkZEqNZKVSl7iAGqiM8XEDdNwP2WdJdAKhE9Jw4AZQeUYNtFgTRcabLRFg9oAGYmheKdUeUmmx6MoY9OvEWHyf4Z7LlCy1dbwIWht8s2nNKhC9ML52Rwok9IudWGc8KvFH72L/t9eHfxe/l8PxON8b7//3F0V9NV8y5fEP);lineShape=1;" vertex="1" parent="1">
                    <mxGeometry x="332.8244706364185" y="496.18726206117276" width="24.77917185339993" height="25.49679245653647" as="geometry"/>
                </mxCell>
            </root>
        </mxGraphModel>
    </diagram>
</mxfile>
